<svg width="405" height="122" viewBox="0 0 405 122" fill="none" xmlns="http://www.w3.org/2000/svg">
<path d="M238.352 63.3847C234.879 68.1071 229.11 71.276 222.969 71.9595C216.89 72.7051 210.253 70.9653 205.477 66.9265C203.058 64.9381 201.135 62.4527 199.708 59.7809C198.281 57.109 197.289 54.3129 196.607 51.4546C195.924 48.5964 195.614 45.676 195.738 42.7556C195.8 39.8352 196.297 36.9148 197.227 33.9945C198.219 31.1362 199.708 28.4022 201.693 25.9789C203.678 23.5556 206.159 21.5673 208.888 20.0139C214.285 16.8449 221.046 15.7886 227.249 17.2178C233.514 18.6469 239.035 22.4993 242.57 27.5945C244.369 30.142 245.61 33.0003 246.292 35.9207C246.974 38.8411 247.098 41.8857 246.602 44.744H245.982C245.424 41.9479 244.555 39.3381 243.315 36.977C242.074 34.6158 240.585 32.5032 238.786 30.6391C235.189 27.0352 230.661 24.5498 225.884 23.6178C223.465 23.1828 221.046 23.0585 218.627 23.3071L217.697 23.4935C217.386 23.5556 217.076 23.5556 216.766 23.6178L214.967 23.9906L213.23 24.5498C212.672 24.7362 212.114 25.0469 211.494 25.2333C209.261 26.2896 207.152 27.7187 205.229 29.3964C204.236 30.2663 203.43 31.1983 202.561 32.1304L201.383 33.6838C201.011 34.243 200.701 34.8022 200.328 35.3614C199.026 37.6605 198.095 40.208 197.785 42.8799C197.413 45.5517 197.661 48.3479 198.53 50.8954C199.336 53.5051 200.763 55.8042 202.499 57.7925C204.236 59.7809 206.345 61.3343 208.516 62.7012C210.687 64.0061 212.92 65.0624 215.277 65.8702C217.635 66.678 220.178 66.9886 222.721 67.1129C227.807 67.175 233.018 65.7459 237.918 62.8877L238.352 63.3847Z" fill="#FA6062"/>
<path d="M202.872 61.645C198.095 58.2275 194.932 52.4489 194.25 46.2974C193.567 40.1459 195.242 33.5595 199.274 28.7751C201.259 26.3518 203.74 24.4256 206.407 22.9964C209.075 21.5673 211.866 20.5731 214.719 19.8896C217.572 19.2061 220.488 18.8955 223.403 19.0197C226.319 19.144 229.296 19.579 232.149 20.5731C235.003 21.5052 237.794 22.9964 240.151 24.9848C242.57 26.9731 244.555 29.4586 246.106 32.1925C249.269 37.6605 250.324 44.4333 248.959 50.6469C247.532 56.9226 243.687 62.4527 238.6 65.9945C236.057 67.7964 233.204 69.0391 230.288 69.7226C227.373 70.4061 224.334 70.5304 221.48 70.0333V69.412C224.272 68.8527 226.877 67.9828 229.234 66.7401C231.591 65.4974 233.7 64.0061 235.561 62.2042C239.159 58.6003 241.64 54.0644 242.57 49.2799C243.004 46.8566 243.128 44.4333 242.88 42.01L242.756 41.078C242.694 40.7673 242.694 40.4566 242.632 40.1459L242.26 38.344L241.702 36.6042C241.516 36.045 241.206 35.4858 241.019 34.8644C239.965 32.6275 238.538 30.5149 236.863 28.5887C235.995 27.5945 235.065 26.7867 234.134 25.9168L232.459 24.6741C231.901 24.3013 231.343 23.9906 230.785 23.6178C228.49 22.3129 225.946 21.3809 223.279 21.0081C220.612 20.6353 217.821 20.9459 215.277 21.7537C212.672 22.5615 210.377 23.9906 208.392 25.7304C206.407 27.4702 204.857 29.5828 203.492 31.7576C202.189 33.9324 201.135 36.1692 200.328 38.5304C199.522 40.8916 199.212 43.4392 199.088 45.9867C199.026 51.0819 200.452 56.3013 203.306 61.21L202.872 61.645Z" fill="#FFB642"/>
<path d="M257.859 34.5687C257.859 33.7078 258.142 32.9828 258.707 32.3938C259.295 31.8048 260.064 31.5103 261.014 31.5103C261.964 31.5103 262.722 31.8048 263.287 32.3938C263.875 32.9828 264.169 33.7078 264.169 34.5687C264.169 35.4296 263.875 36.1545 263.287 36.7435C262.722 37.3326 261.964 37.6271 261.014 37.6271C260.064 37.6271 259.295 37.3326 258.707 36.7435C258.142 36.1545 257.859 35.4296 257.859 34.5687ZM263.898 55.6377C263.649 55.6831 263.276 55.7397 262.778 55.8077C262.303 55.8983 261.817 55.9436 261.319 55.9436C260.822 55.9436 260.37 55.9096 259.962 55.8416C259.578 55.7737 259.25 55.6377 258.979 55.4339C258.707 55.23 258.492 54.9581 258.334 54.6183C258.198 54.2558 258.131 53.7914 258.131 53.225V39.3942C258.379 39.3489 258.741 39.2922 259.216 39.2243C259.714 39.1336 260.211 39.0883 260.709 39.0883C261.206 39.0883 261.647 39.1223 262.032 39.1903C262.439 39.2582 262.778 39.3942 263.05 39.5981C263.321 39.802 263.524 40.0851 263.66 40.4476C263.818 40.7874 263.898 41.2405 263.898 41.8069V55.6377Z" fill="white"/>
<path d="M278.018 45.2052C278.018 44.5029 277.814 43.9931 277.407 43.6759C277.023 43.3361 276.491 43.1662 275.813 43.1662C275.36 43.1662 274.908 43.2228 274.456 43.3361C274.026 43.4494 273.653 43.6193 273.336 43.8459V55.6377C273.11 55.7057 272.748 55.7737 272.251 55.8416C271.776 55.9096 271.278 55.9436 270.758 55.9436C270.26 55.9436 269.808 55.9096 269.401 55.8416C269.017 55.7737 268.689 55.6377 268.417 55.4339C268.146 55.23 267.931 54.9581 267.773 54.6183C267.637 54.2558 267.569 53.7914 267.569 53.225V43.0303C267.569 42.4186 267.693 41.9202 267.942 41.5351C268.214 41.1499 268.575 40.7988 269.028 40.4816C269.797 39.9379 270.758 39.4961 271.911 39.1563C273.087 38.8165 274.388 38.6466 275.813 38.6466C278.368 38.6466 280.336 39.2129 281.715 40.3457C283.095 41.4558 283.785 43.0076 283.785 45.0013V55.6377C283.559 55.7057 283.197 55.7737 282.699 55.8416C282.224 55.9096 281.727 55.9436 281.206 55.9436C280.709 55.9436 280.257 55.9096 279.85 55.8416C279.465 55.7737 279.137 55.6377 278.866 55.4339C278.594 55.23 278.379 54.9581 278.221 54.6183C278.085 54.2558 278.018 53.7914 278.018 53.225V45.2052Z" fill="white"/>
<path d="M311.942 38.3067C313.299 38.3067 314.554 38.488 315.707 38.8505C316.883 39.1903 317.89 39.7227 318.727 40.4476C319.563 41.1726 320.219 42.0901 320.694 43.2002C321.169 44.2876 321.407 45.5903 321.407 47.1082C321.407 48.5581 321.203 49.8268 320.796 50.9142C320.389 52.0016 319.812 52.9192 319.066 53.6668C318.319 54.3917 317.415 54.9354 316.352 55.2979C315.312 55.6604 314.147 55.8416 312.858 55.8416C311.885 55.8416 310.981 55.6944 310.144 55.3999V61.0409C309.918 61.1089 309.556 61.1769 309.058 61.2448C308.561 61.3355 308.052 61.3808 307.532 61.3808C307.034 61.3808 306.582 61.3468 306.175 61.2788C305.79 61.2109 305.462 61.0749 305.191 60.871C304.92 60.6671 304.716 60.384 304.58 60.0215C304.445 59.6817 304.377 59.2286 304.377 58.6622V42.3506C304.377 41.739 304.501 41.2405 304.75 40.8554C305.021 40.4703 305.383 40.1191 305.836 39.802C306.537 39.3489 307.407 38.9864 308.448 38.7145C309.488 38.4427 310.653 38.3067 311.942 38.3067ZM312.01 51.288C314.339 51.288 315.504 49.8947 315.504 47.1082C315.504 45.6583 315.21 44.5821 314.622 43.8798C314.056 43.1775 313.231 42.8264 312.145 42.8264C311.716 42.8264 311.331 42.883 310.992 42.9963C310.653 43.0869 310.359 43.2002 310.11 43.3361V50.8122C310.381 50.9482 310.675 51.0615 310.992 51.1521C311.309 51.2427 311.648 51.288 312.01 51.288Z" fill="white"/>
<path d="M332.939 55.8756C331.605 55.8756 330.361 55.6944 329.208 55.3319C328.077 54.9468 327.082 54.3804 326.222 53.6328C325.386 52.8852 324.718 51.945 324.221 50.8122C323.746 49.6795 323.509 48.3542 323.509 46.8363C323.509 45.3411 323.746 44.0611 324.221 42.9963C324.718 41.9089 325.363 41.0253 326.155 40.3457C326.946 39.6434 327.851 39.1336 328.869 38.8165C329.886 38.4766 330.927 38.3067 331.99 38.3067C333.188 38.3067 334.274 38.488 335.246 38.8505C336.241 39.2129 337.089 39.7113 337.79 40.3457C338.514 40.98 339.068 41.739 339.453 42.6225C339.86 43.506 340.063 44.4689 340.063 45.511C340.063 46.2813 339.849 46.8703 339.419 47.2781C338.989 47.6859 338.39 47.9464 337.621 48.0597L329.242 49.317C329.49 50.0646 329.999 50.631 330.768 51.0161C331.537 51.3786 332.419 51.5599 333.414 51.5599C334.342 51.5599 335.212 51.4466 336.026 51.22C336.863 50.9708 337.542 50.6876 338.062 50.3705C338.424 50.597 338.729 50.9142 338.978 51.322C339.227 51.7298 339.351 52.1602 339.351 52.6133C339.351 53.6328 338.876 54.3917 337.926 54.8901C337.202 55.2753 336.388 55.5358 335.484 55.6717C334.579 55.8077 333.731 55.8756 332.939 55.8756ZM331.99 42.5205C331.447 42.5205 330.972 42.6112 330.565 42.7924C330.18 42.9736 329.864 43.2115 329.615 43.506C329.366 43.7779 329.174 44.0951 329.038 44.4575C328.925 44.7974 328.857 45.1485 328.835 45.511L334.636 44.5595C334.568 44.1064 334.319 43.6533 333.889 43.2002C333.46 42.7471 332.826 42.5205 331.99 42.5205Z" fill="white"/>
<path d="M301.461 50.7443C301.461 52.4661 300.816 53.814 299.527 54.7882C298.238 55.7623 296.338 56.2494 293.828 56.2494C292.878 56.2494 291.996 56.1815 291.182 56.0455C290.368 55.9096 289.667 55.7057 289.079 55.4339C288.513 55.1393 288.061 54.7769 287.722 54.3464C287.405 53.916 287.247 53.4062 287.247 52.8172C287.247 52.2735 287.36 51.8204 287.586 51.4579C287.812 51.0728 288.083 50.7556 288.4 50.5064C289.056 50.8689 289.802 51.1974 290.639 51.4919C291.498 51.7638 292.482 51.8997 293.59 51.8997C294.292 51.8997 294.823 51.7977 295.185 51.5938C295.569 51.3899 295.762 51.1181 295.762 50.7783C295.762 50.4611 295.626 50.2119 295.354 50.0307C295.083 49.8494 294.631 49.7022 293.998 49.5889L292.98 49.385C291.012 48.9999 289.542 48.3995 288.57 47.5839C287.62 46.7457 287.145 45.5563 287.145 44.0158C287.145 43.1775 287.326 42.4186 287.688 41.7389C288.05 41.0593 288.558 40.4929 289.214 40.0398C289.87 39.5867 290.65 39.2356 291.555 38.9864C292.482 38.7372 293.5 38.6126 294.608 38.6126C295.445 38.6126 296.225 38.6805 296.949 38.8165C297.695 38.9297 298.34 39.111 298.883 39.3602C299.425 39.6094 299.855 39.9379 300.172 40.3457C300.488 40.7308 300.647 41.1952 300.647 41.7389C300.647 42.26 300.545 42.7131 300.341 43.0982C300.16 43.4607 299.923 43.7666 299.629 44.0158C299.448 43.9025 299.177 43.7892 298.815 43.6759C298.453 43.54 298.057 43.4267 297.627 43.3361C297.198 43.2228 296.757 43.1322 296.304 43.0643C295.875 42.9963 295.479 42.9623 295.117 42.9623C294.371 42.9623 293.794 43.0529 293.387 43.2342C292.98 43.3928 292.776 43.6533 292.776 44.0158C292.776 44.265 292.889 44.4689 293.116 44.6275C293.342 44.786 293.771 44.9333 294.405 45.0692L295.456 45.3071C297.627 45.8055 299.165 46.4965 300.07 47.38C300.997 48.2409 301.461 49.3623 301.461 50.7443Z" fill="white"/>
<path d="M223.093 56.2155C221.759 56.2155 220.515 56.0343 219.361 55.6718C218.231 55.2866 217.236 54.7203 216.376 53.9727C215.539 53.2251 214.872 52.2849 214.375 51.1522C213.9 50.0194 213.662 48.6941 213.662 47.1762C213.662 45.681 213.9 44.401 214.375 43.3363C214.872 42.2488 215.517 41.3653 216.308 40.6857C217.1 39.9834 218.004 39.4736 219.022 39.1565C220.04 38.8166 221.08 38.6467 222.143 38.6467C223.342 38.6467 224.427 38.828 225.4 39.1904C226.395 39.5529 227.243 40.0513 227.944 40.6857C228.668 41.32 229.222 42.0789 229.606 42.9625C230.013 43.846 230.217 44.8088 230.217 45.8509C230.217 46.6212 230.002 47.2102 229.572 47.618C229.143 48.0258 228.543 48.2863 227.774 48.3996L219.395 49.6569C219.644 50.4045 220.153 50.9709 220.922 51.356C221.691 51.7185 222.573 51.8998 223.568 51.8998C224.495 51.8998 225.366 51.7865 226.18 51.5599C227.017 51.3107 227.695 51.0276 228.215 50.7104C228.577 50.9369 228.883 51.2541 229.131 51.6619C229.38 52.0697 229.505 52.5001 229.505 52.9532C229.505 53.9727 229.03 54.7316 228.08 55.23C227.356 55.6151 226.542 55.8757 225.637 56.0116C224.733 56.1475 223.885 56.2155 223.093 56.2155ZM222.143 42.8605C221.6 42.8605 221.125 42.9511 220.718 43.1324C220.334 43.3136 220.017 43.5515 219.768 43.846C219.52 44.1179 219.327 44.435 219.192 44.7975C219.079 45.1373 219.011 45.4885 218.988 45.8509L224.789 44.8994C224.721 44.4463 224.473 43.9933 224.043 43.5402C223.613 43.0871 222.98 42.8605 222.143 42.8605Z" fill="white"/>
<path d="M326.223 35.086L333.082 27.7766L336.148 30.5225C335.341 31.4764 334.467 32.353 333.525 33.1523C332.611 33.9515 331.764 34.6477 330.984 35.2407C330.069 35.911 329.141 36.5298 328.2 37.097L326.223 35.086Z" fill="white"/>
<g clip-path="url(#clip0)">
<rect width="152" height="122" fill="white"/>
<path d="M12.7225 30.9868H15.1685L17.4767 34.831L19.7865 30.9868H22.2325V40.3237H20.2954V33.6807L18.1598 37.1227H16.7967L14.6626 33.6807V40.3237H12.7225V30.9868Z" fill="black"/>
<path d="M24.8981 30.9868H26.8383V40.3237H24.8981V30.9868Z" fill="black"/>
<path d="M29.5161 30.9868H32.0046L36.2817 37.6697V30.9868H38.2219V40.3237H35.735L31.4578 33.6141V40.3237H29.5161V30.9868Z" fill="black"/>
<path d="M40.8936 30.9868H42.8353V40.3237H40.8936V30.9868Z" fill="black"/>
<path d="M46.0659 37.7629C46.6399 38.4829 47.4048 38.9102 48.1863 38.9102C48.9678 38.9102 49.4161 38.5096 49.4161 37.8294C49.4161 36.1617 45.042 36.5357 45.042 33.4279C45.042 31.9494 46.2855 30.7192 48.103 30.7192C49.5388 30.7192 50.646 31.3461 51.4517 32.2939L50.0295 33.5343C49.4706 32.8276 48.8421 32.3737 48.1166 32.3737C47.4472 32.3737 47.011 32.801 47.011 33.3466C47.011 35.0143 51.3836 34.6284 51.3836 37.7895C51.3563 39.5238 49.9614 40.5987 48.212 40.5987C46.6005 40.5987 45.507 40.025 44.6603 39.0374L46.0659 37.7629Z" fill="black"/>
<path d="M52.3665 30.9868H60.2106V32.7063H57.2586V40.3237H55.3185V32.7063H52.3665V30.9868Z" fill="black"/>
<path d="M61.9189 30.9867H67.4941V32.5998H63.8591V34.7613H66.9443V36.3715H63.8591V38.706H67.4941V40.3191H61.9189V30.9867ZM62.0825 28.3875H64.0772L65.6221 30.1883H63.8455L62.0825 28.3875Z" fill="black"/>
<path d="M69.7493 30.9868H72.674C74.7777 30.9868 76.0757 32.0395 76.0757 33.7738C76.0757 34.8945 75.5153 35.7358 74.546 36.1882L77.5525 40.3281H75.2291L72.6876 36.549H71.6895V40.3237H69.7493V30.9868ZM71.6895 32.5999V34.9345H72.783C73.6024 34.9345 74.081 34.5072 74.081 33.7516C74.081 33.0449 73.6024 32.6043 72.783 32.6043L71.6895 32.5999Z" fill="black"/>
<path d="M78.758 30.9868H84.3332V32.5999H80.6982V34.7615H83.7864V36.3716H80.6952V38.7062H84.3302V40.3192H78.758V30.9868Z" fill="black"/>
<path d="M12.7225 44.4517H16.4801C19.5093 44.4517 21.5631 46.5985 21.5631 49.1193C21.5631 51.6402 19.5138 53.7885 16.4801 53.7885H12.7225V44.4517ZM14.6626 46.1727V52.0675H16.5089C18.2855 52.0675 19.5699 50.7738 19.5699 49.1193C19.5699 47.4649 18.2855 46.1727 16.5089 46.1727H14.6626Z" fill="black"/>
<path d="M23.4351 44.4517H29.0117V46.0647H25.3767V48.2263H28.465V49.8409H25.3767V52.1754H29.0117V53.7885H23.4351V44.4517Z" fill="black"/>
<path d="M34.8187 44.4517H36.7604V52.0675H40.3953V53.7885H34.8187V44.4517Z" fill="black"/>
<path d="M39.9849 48.2929L41.2147 44.4487H43.1837L41.5994 48.2929H39.9849Z" fill="black"/>
<path d="M44.6801 44.4516H50.2552V46.0646H46.6202V48.2262H49.7085V49.8408H46.6263V52.1753H50.2613V53.7884H44.6801V44.4516ZM46.5657 43.6502L48.1106 41.8494H50.1053L48.3287 43.6502H46.5657Z" fill="black"/>
<path d="M52.5165 44.4517H56.2741C59.3033 44.4517 61.3586 46.5985 61.3586 49.1193C61.3586 51.6402 59.3078 53.7885 56.2741 53.7885H52.5165V44.4517ZM54.4567 46.1727V52.0675H56.3014C58.078 52.0675 59.3624 50.7738 59.3624 49.1193C59.3624 47.4649 58.078 46.1727 56.3014 46.1727H54.4567Z" fill="black"/>
<path d="M68.8739 44.4517H70.8141V50.1336C70.8141 52.5879 69.3389 54.0561 66.9337 54.0561C64.5286 54.0561 63.067 52.5879 63.067 50.1336V44.4517H65.0072V50.2933C65.0072 51.5485 65.7311 52.2819 66.9473 52.2819C68.1363 52.2819 68.8739 51.5426 68.8739 50.2933V44.4517Z" fill="black"/>
<path d="M80.0939 51.0089L81.6236 52.1562C80.7497 53.3168 79.3275 54.0635 77.5933 54.0635C74.5733 54.0635 72.5089 51.7954 72.5089 49.1267C72.5089 46.458 74.5733 44.1914 77.5933 44.1914C79.3275 44.1914 80.7497 44.9514 81.6236 46.0854L80.0939 47.246C79.8172 46.8482 79.4442 46.5232 79.008 46.2998C78.5718 46.0765 78.0859 45.9617 77.5933 45.9656C75.7895 45.9656 74.5051 47.3392 74.5051 49.1267C74.5051 50.9142 75.7895 52.2893 77.5933 52.2893C78.0859 52.2932 78.5718 52.1784 79.008 51.955C79.4442 51.7317 79.8172 51.4067 80.0939 51.0089Z" fill="black"/>
<path d="M85.6554 44.4517H88.1969L91.8182 53.7885H89.7554L88.8391 51.3608H85.0132L84.1045 53.7885H82.0341L85.6554 44.4517ZM88.2378 49.7462L86.9261 46.2392L85.6145 49.7462H88.2378Z" fill="black"/>
<path d="M91.3548 44.4517H99.2049V46.1727H96.2469V53.7885H94.3067V46.1727H91.3548V44.4517Z" fill="black"/>
<path d="M100.907 44.4517H102.847V53.7885H100.907V44.4517Z" fill="black"/>
<path d="M114.86 49.1194C114.86 51.7807 112.795 54.0562 109.789 54.0562C106.782 54.0562 104.706 51.7881 104.706 49.1194C104.706 46.4507 106.769 44.1841 109.789 44.1841C112.809 44.1841 114.86 46.4521 114.86 49.1194ZM112.863 49.1194C112.863 47.3319 111.579 45.9583 109.789 45.9583C107.999 45.9583 106.701 47.3319 106.701 49.1194C106.701 50.9069 107.985 52.2819 109.789 52.2819C111.593 52.2819 112.863 50.9069 112.863 49.1194V49.1194Z" fill="black"/>
<path d="M116.718 44.4517H119.205L123.482 51.1346V44.4517H125.422V53.7885H122.935L118.658 47.079V53.7885H116.718V44.4517Z" fill="black"/>
<path d="M12.7225 57.9165H15.2094L19.4866 64.5994V57.9165H21.4268V67.2548H18.9398L14.6626 60.5438V67.2548H12.7225V57.9165Z" fill="black"/>
<path d="M26.5248 57.9165H29.0663L32.6876 67.2548H30.6232L29.7145 64.8256H25.8811L24.9724 67.2548H22.9034L26.5248 57.9165ZM29.1072 63.2126L27.7955 59.704L26.4824 63.2126H29.1072Z" fill="black"/>
<path d="M32.2226 57.9165H40.0666V59.6375H37.1147V67.2548H35.1745V59.6375H32.2226V57.9165Z" fill="black"/>
<path d="M41.7751 57.9165H43.7153V67.2548H41.7751V57.9165Z" fill="black"/>
<path d="M55.7274 62.5857C55.7274 65.247 53.6645 67.521 50.6581 67.521C47.6516 67.521 45.5736 65.253 45.5736 62.5857C45.5736 59.9185 47.638 57.6489 50.6581 57.6489C53.6782 57.6489 55.7274 59.917 55.7274 62.5857ZM53.7327 62.5857C53.7327 60.7982 52.4483 59.4232 50.6581 59.4232C48.8678 59.4232 47.5699 60.7982 47.5699 62.5857C47.5699 64.3732 48.8542 65.7468 50.6581 65.7468C52.4619 65.7468 53.7327 64.3732 53.7327 62.5857Z" fill="black"/>
<path d="M57.5858 57.9165H60.0742L64.3514 64.5994V57.9165H66.2916V67.2548H63.8046L59.5229 60.5438V67.2548H57.5858V57.9165Z" fill="black"/>
<path d="M71.3881 57.9165H73.9311L77.5464 67.2548H75.4881L74.5794 64.8256H70.746L69.8372 67.2548H67.7668L71.3881 57.9165ZM73.972 63.2126L72.6589 59.704L71.3472 63.2126H73.972Z" fill="black"/>
<path d="M79.0277 57.9165H80.9679V65.5338H84.6028V67.2548H79.0277V57.9165Z" fill="black"/>
<path d="M86.3112 57.9165H91.8864V59.5296H88.2514V61.6912H91.3412V63.3057H88.2514V65.6462H91.8864V67.2607H86.3112V57.9165Z" fill="black"/>
<path d="M12.7225 71.3813H18.2976V72.9959H14.6626V75.156H17.7509V76.7706H14.6626V79.1007H18.2976V80.7271H12.7225V71.3813Z" fill="black"/>
<path d="M19.7728 71.3813H27.6168V73.1023H24.6648V80.7271H22.7186V73.1023H19.7728V71.3813Z" fill="black"/>
<path d="M32.8785 71.3813H36.6361C39.6653 71.3813 41.7206 73.5282 41.7206 76.0505C41.7206 78.5729 39.6699 80.7271 36.6361 80.7271H32.8785V71.3813ZM34.8187 73.1023V78.9987H36.6634C38.44 78.9987 39.7244 77.7035 39.7244 76.0505C39.7244 74.3975 38.44 73.1023 36.6634 73.1023H34.8187Z" fill="black"/>
<path d="M43.5926 71.3813H49.1677V72.9959H45.5328V75.156H48.618V76.7706H45.5328V79.1007H49.1677V80.7271H43.5926V71.3813Z" fill="black"/>
<path d="M54.9791 71.3813H56.9193V78.9987H60.5543V80.7271H54.9791V71.3813Z" fill="black"/>
<path d="M65.089 71.3813H67.6305L71.2518 80.7271H69.1875L68.2787 78.2979H64.4468L63.5305 80.7271H61.4677L65.089 71.3813ZM67.6714 76.6774L66.3597 73.1689L65.0481 76.6774H67.6714Z" fill="black"/>
<path d="M75.3927 83.0395C75.139 83.0524 74.8846 83.0345 74.6354 82.9862V81.3185C74.7972 81.3473 74.9616 81.3606 75.1261 81.3584C75.9879 81.3584 76.4392 80.9976 76.4392 80.0366V71.3813H78.3794V79.9449C78.3718 82.0134 77.3949 83.0395 75.3927 83.0395Z" fill="black"/>
<path d="M81.0496 71.3813H86.6248V72.9959H82.9898V75.156H86.0795V76.7706H82.9898V79.1007H86.6248V80.7271H81.0496V71.3813Z" fill="black"/>
<path d="M94.4702 71.3813H96.4104V77.0633C96.4104 79.5191 94.9337 80.9858 92.5285 80.9858C90.1234 80.9858 88.6618 79.5191 88.6618 77.0633V71.3813H90.602V77.2244C90.602 78.4782 91.326 79.2116 92.5422 79.2116C93.7311 79.2116 94.4702 78.4723 94.4702 77.2244V71.3813Z" fill="black"/>
<path d="M98.8156 71.3813H101.303L105.58 78.0657V71.3828H107.52V80.7271H105.033L100.756 74.0161V80.7271H98.8156V71.3813Z" fill="black"/>
<path d="M110.199 71.3813H115.774V72.9959H112.139V75.156H115.228V76.7706H112.139V79.1007H115.774V80.7271H110.199V71.3813Z" fill="black"/>
<path d="M118.576 78.1574C119.15 78.8775 119.915 79.3048 120.697 79.3048C121.478 79.3048 121.927 78.9041 121.927 78.224C121.927 76.5562 117.554 76.9303 117.554 73.8224C117.554 72.3439 118.797 71.1138 120.615 71.1138C122.051 71.1138 123.156 71.7407 123.964 72.6884L122.538 73.9259C121.978 73.2192 121.349 72.7653 120.626 72.7653C119.956 72.7653 119.518 73.1926 119.518 73.7396C119.518 75.4074 123.892 75.02 123.892 78.1752C123.865 79.9095 122.47 80.9844 120.721 80.9844C119.109 80.9844 118.016 80.4107 117.168 79.4231L118.576 78.1574Z" fill="black"/>
<path d="M126.379 78.1574C126.953 78.8775 127.718 79.3048 128.5 79.3048C129.281 79.3048 129.73 78.9041 129.73 78.224C129.73 76.5562 125.356 76.9303 125.356 73.8224C125.356 72.3439 126.599 71.1138 128.417 71.1138C129.852 71.1138 130.959 71.7407 131.765 72.6884L130.343 73.9259C129.783 73.2192 129.154 72.7653 128.429 72.7653C127.759 72.7653 127.323 73.1926 127.323 73.7396C127.323 75.4074 131.696 75.02 131.696 78.1752C131.668 79.9095 130.273 80.9844 128.526 80.9844C126.913 80.9844 125.819 80.4107 124.972 79.4231L126.379 78.1574Z" fill="black"/>
<path d="M133.737 71.3813H139.314V72.9959H135.679V75.156H138.767V76.7706H135.673V79.1007H139.308V80.7271H133.737V71.3813Z" fill="black"/>
<path d="M43.8501 106.532C44.1091 106.532 44.3332 106.724 44.2151 107.21L43.014 107.488C43.2246 106.94 43.5759 106.536 43.8561 106.536L43.8501 106.532ZM44.5225 108.433H44.2832C43.9803 108.782 43.6592 109.056 43.3366 109.056C43.014 109.056 42.8383 108.865 42.8383 108.433C42.839 108.258 42.8577 108.084 42.8944 107.913L44.8315 107.284C45.2102 106.409 44.7543 106.025 44.2257 106.025C43.3079 106.025 42.2567 107.525 42.2567 108.834C42.2567 109.425 42.5445 109.745 42.9928 109.745C43.5184 109.745 44.0651 109.243 44.515 108.423L44.5225 108.433ZM44.1288 105.67L45.4919 104.423V104.276H44.7558L43.9137 105.665L44.1288 105.67ZM39.9349 106.547H40.5801L39.5562 109.279C39.4654 109.511 39.5911 109.745 39.8364 109.745C40.418 109.745 41.3586 109.183 41.6888 108.414H41.5055C41.2465 108.682 40.7482 109.038 40.3211 109.113L41.2601 106.545H42.2219L42.34 106.155H41.4086L41.7675 105.169H41.3949L40.7285 106.155L39.9364 106.264L39.9349 106.547ZM39.0655 106.417C39.0848 106.376 39.0939 106.331 39.092 106.287C39.0901 106.242 39.0773 106.198 39.0546 106.159C39.032 106.12 39.0001 106.087 38.9617 106.063C38.9233 106.039 38.8794 106.023 38.8338 106.019C38.2734 106.019 37.607 106.513 37.3404 107.202H37.5222C37.7039 106.947 38.0129 106.666 38.3007 106.619L37.2283 109.344C37.2072 109.384 37.1966 109.429 37.1975 109.474C37.1985 109.52 37.2109 109.564 37.2337 109.603C37.2565 109.643 37.289 109.676 37.3283 109.7C37.3675 109.724 37.4123 109.739 37.4586 109.742C37.9917 109.742 38.6157 109.241 38.8823 108.559H38.7005C38.5188 108.813 38.2098 109.094 37.922 109.141L39.0655 106.417ZM39.2609 105.047C39.3526 105.048 39.4424 105.021 39.5188 104.972C39.5952 104.922 39.6549 104.852 39.6902 104.769C39.7255 104.687 39.7349 104.596 39.7172 104.508C39.6994 104.42 39.6554 104.339 39.5907 104.276C39.5259 104.212 39.4433 104.169 39.3534 104.151C39.2634 104.134 39.1702 104.143 39.0854 104.177C39.0006 104.211 38.9282 104.269 38.8772 104.343C38.8262 104.418 38.799 104.505 38.799 104.595C38.7977 104.655 38.8088 104.714 38.8316 104.769C38.8543 104.825 38.8883 104.875 38.9314 104.917C38.9745 104.959 39.0259 104.993 39.0826 105.015C39.1392 105.037 39.1998 105.048 39.2609 105.047ZM33.0829 109.238C32.9421 109.545 33.0905 109.745 33.398 109.745C33.4778 109.756 33.5589 109.736 33.6243 109.69C33.6898 109.644 33.7345 109.575 33.7494 109.498L34.493 107.576C34.8368 107.165 35.5441 106.726 35.8243 106.726C36.0288 106.726 36 106.891 35.8667 107.137L34.7232 109.28C34.6965 109.328 34.6829 109.382 34.6839 109.437C34.6848 109.491 34.7003 109.544 34.7286 109.591C34.757 109.638 34.7974 109.677 34.8459 109.704C34.8943 109.732 34.9491 109.746 35.0049 109.746C35.5653 109.746 36.2317 109.252 36.4983 108.563H36.3166C36.1333 108.818 35.8243 109.099 35.5381 109.146L36.5195 107.209C36.6325 107.004 36.6972 106.776 36.7088 106.544C36.716 106.476 36.7079 106.407 36.6851 106.342C36.6623 106.277 36.6253 106.218 36.5767 106.169C36.5282 106.119 36.4692 106.081 36.4038 106.056C36.3385 106.031 36.2684 106.021 36.1984 106.025C35.7153 106.025 35.2246 106.56 34.6414 107.216V106.711C34.6414 106.347 34.5233 106.025 34.1871 106.025C33.9765 106.025 33.7736 106.204 33.5812 106.456V106.524C33.9463 106.505 34.1068 107.039 33.8478 107.601L33.0829 109.238ZM33.0693 106.854C33.2026 106.411 33.1314 106.019 32.7815 106.019C32.3681 106.019 32.262 106.328 31.841 107.21V106.705C31.841 106.341 31.7228 106.019 31.3866 106.019C30.9943 106.019 30.6369 106.61 30.3628 107.202H30.546C30.7353 106.934 30.9095 106.776 31.0504 106.776C31.2185 106.776 31.3094 107.03 31.0504 107.592L30.2931 109.235C30.1522 109.542 30.3007 109.742 30.6081 109.742C30.688 109.753 30.769 109.733 30.8345 109.687C30.8999 109.641 30.9447 109.572 30.9595 109.495L31.7032 107.573C31.9137 107.318 32.103 107.1 32.3408 106.853L33.0693 106.854ZM28.7619 106.526C29.0224 106.526 29.2465 106.718 29.1269 107.205L27.9152 107.478C28.1257 106.93 28.4756 106.526 28.7558 106.526H28.7619ZM29.4222 108.423H29.1844C28.8815 108.772 28.5604 109.045 28.2378 109.045C27.9152 109.045 27.7395 108.855 27.7395 108.423C27.7401 108.248 27.7589 108.074 27.7956 107.902L29.7388 107.279C30.1174 106.403 29.6615 106.019 29.1329 106.019C28.2136 106.019 27.164 107.52 27.164 108.828C27.164 109.419 27.4517 109.739 27.9001 109.739C28.4271 109.739 28.9739 109.238 29.4222 108.417V108.423ZM24.8436 106.541H25.4888L24.4635 109.273C24.3726 109.505 24.4998 109.739 24.7452 109.739C25.3268 109.739 26.2598 109.177 26.596 108.408H26.4143C26.1537 108.676 25.657 109.032 25.2283 109.107L26.1689 106.539H27.1291L27.2624 106.158H26.3234L26.6808 105.172H26.3098L25.6433 106.158L24.8512 106.267L24.8436 106.541ZM21.301 108.67C21.301 107.829 22.2613 106.684 22.802 106.684C22.9134 106.683 23.0245 106.697 23.1322 106.726L22.5703 108.183C22.2477 108.568 21.7494 109.034 21.5191 109.034C21.3859 109.034 21.301 108.923 21.301 108.67ZM24.2545 105.861L23.9591 105.84L23.6365 106.158H23.5669C21.9675 106.158 20.5862 107.911 20.5862 109.184C20.5795 109.26 20.5898 109.336 20.6163 109.407C20.6429 109.478 20.685 109.543 20.7399 109.596C20.7947 109.65 20.8609 109.691 20.9338 109.717C21.0066 109.743 21.0844 109.753 21.1617 109.746C21.5752 109.746 21.9826 109.171 22.4385 108.554L22.4173 108.773C22.3612 109.403 22.5566 109.746 22.8944 109.746C23.2867 109.746 23.6517 109.155 23.9182 108.563H23.735C23.5456 108.831 23.37 108.989 23.2306 108.989C23.0913 108.989 22.9777 108.729 23.2306 108.173L24.2545 105.861ZM20.8452 106.853C20.9784 106.409 20.9088 106.017 20.5574 106.017C20.1439 106.017 20.0394 106.326 19.6183 107.209V106.703C19.6183 106.34 19.4987 106.017 19.164 106.017C18.7702 106.017 18.4067 106.609 18.1401 107.2H18.3264C18.5157 106.933 18.6914 106.774 18.8308 106.774C19.0004 106.774 19.0913 107.029 18.8308 107.59L18.0735 109.233C17.9341 109.541 18.0735 109.74 18.39 109.74C18.5793 109.74 18.6626 109.691 18.7399 109.493L19.4835 107.571C19.6941 107.317 19.8834 107.098 20.1227 106.851L20.8452 106.853ZM15.4729 109.606L15.5426 109.393C14.6096 109.223 14.4915 109.223 14.8626 108.229L15.2412 107.209H16.2726C16.7361 107.209 16.7422 107.394 16.6725 107.888H16.9391L17.5691 106.245H17.2965C17.0663 106.635 16.883 106.922 16.3787 106.922H15.3609L15.9031 105.478C16.0712 105.019 16.1697 104.923 16.8012 104.923H17.2556C17.9084 104.923 17.9856 105.095 17.9856 105.738H18.2446L18.4612 104.616H14.5824L14.5127 104.827C15.27 104.975 15.3336 105.046 14.9822 105.991L14.1416 108.237C13.7903 109.175 13.6433 109.249 12.7785 109.4L12.7225 109.613L15.4729 109.606Z" fill="black"/>
<path d="M34.4597 97.974C34.7187 97.974 34.9428 98.1648 34.8232 98.6512L33.6115 98.9247C33.8221 98.3777 34.1719 97.974 34.4536 97.974H34.4597ZM35.1185 99.8695H34.8807C34.5778 100.22 34.2567 100.493 33.9341 100.493C33.6115 100.493 33.4358 100.301 33.4358 99.8695C33.4365 99.6951 33.4553 99.5212 33.4919 99.3505L35.4411 98.7266C35.8198 97.8498 35.3639 97.4669 34.8353 97.4669C33.916 97.4669 32.8664 98.9661 32.8664 100.276C32.8664 100.867 33.1541 101.187 33.604 101.187C34.1295 101.187 34.6763 100.687 35.1185 99.8651V99.8695ZM34.7338 97.1135L36.0969 95.8671V95.7193H35.3594L34.5188 97.1091L34.7338 97.1135ZM30.54 97.9903H31.1852L30.1613 100.721C30.0689 100.955 30.1962 101.187 30.4415 101.187C31.0231 101.187 31.9637 100.625 32.2923 99.8562H32.1106C31.8516 100.122 31.3533 100.479 30.9247 100.554L31.8652 97.9873H32.8255L32.9451 97.597H32.0182L32.3756 96.6108H32.0046L31.3381 97.597L30.546 97.7064L30.54 97.9903ZM29.6691 97.8602C29.7463 97.6059 29.5721 97.4625 29.4389 97.4625C28.877 97.4625 28.2105 97.9548 27.944 98.6453H28.1272C28.309 98.3925 28.618 98.1115 28.9057 98.0642L27.8319 100.789C27.8106 100.829 27.8 100.874 27.801 100.92C27.802 100.965 27.8146 101.009 27.8376 101.049C27.8606 101.088 27.8934 101.121 27.9328 101.145C27.9723 101.169 28.0173 101.183 28.0636 101.185C28.5968 101.185 29.2208 100.686 29.4873 100.003H29.3056C29.1223 100.255 28.8149 100.536 28.5271 100.585L29.6691 97.8602ZM29.866 96.4911C29.958 96.4928 30.0485 96.4678 30.1259 96.4192C30.2033 96.3706 30.2641 96.3005 30.3006 96.218C30.3371 96.1355 30.3475 96.0443 30.3307 95.956C30.3139 95.8676 30.2704 95.7862 30.206 95.722C30.1416 95.6579 30.059 95.6139 29.9689 95.5957C29.8787 95.5775 29.7851 95.5859 29.6999 95.6199C29.6147 95.6539 29.5417 95.7118 29.4904 95.7864C29.439 95.861 29.4116 95.9488 29.4116 96.0387C29.4104 96.0976 29.4213 96.1563 29.4435 96.2111C29.4658 96.266 29.4991 96.3159 29.5414 96.358C29.5837 96.4002 29.6342 96.4336 29.69 96.4565C29.7457 96.4793 29.8055 96.4911 29.866 96.4911V96.4911ZM26.1416 100.59L28.0985 95.5847L28.0349 95.5093L26.808 95.6454V95.7932L27.0458 95.9706C27.2639 96.1348 27.1973 96.293 26.9974 96.7986L25.4676 100.729C25.441 100.776 25.4274 100.83 25.4283 100.884C25.4292 100.939 25.4445 100.992 25.4727 101.039C25.5009 101.086 25.5411 101.125 25.5893 101.152C25.6375 101.179 25.6921 101.194 25.7478 101.194C26.3097 101.194 26.905 100.702 27.1715 100.011H26.9898C26.7815 100.293 26.483 100.498 26.1416 100.594V100.59ZM22.4233 100.128C22.4233 99.2855 23.3851 98.1426 23.9243 98.1426C24.0358 98.1412 24.1469 98.1551 24.2545 98.184L23.6941 99.6418C23.3715 100.025 22.8732 100.49 22.6414 100.49C22.5082 100.49 22.4233 100.381 22.4233 100.128V100.128ZM25.3768 97.319L25.0739 97.2984L24.7452 97.6133H24.6876C23.0898 97.6133 21.7069 99.3653 21.7069 100.638C21.7003 100.714 21.7105 100.79 21.7371 100.861C21.7636 100.932 21.8058 100.997 21.8607 101.05C21.9155 101.104 21.9817 101.145 22.0546 101.171C22.1274 101.197 22.2052 101.207 22.2825 101.2C22.696 101.2 23.1034 100.625 23.5593 100.008L23.5381 100.229C23.482 100.859 23.6789 101.2 24.0152 101.2C24.4074 101.2 24.7649 100.609 25.039 100.017H24.8573C24.6679 100.285 24.4923 100.442 24.3514 100.442C24.2105 100.442 24.1 100.181 24.3514 99.627L25.3768 97.319ZM18.2371 101.855C18.2371 101.493 18.5945 101.264 19.1064 101.069C19.3526 101.177 19.6055 101.271 19.8637 101.349C20.3968 101.52 20.5998 101.589 20.5998 101.746C20.5998 102.081 20.0182 102.337 19.2261 102.337C18.5597 102.337 18.2371 102.201 18.2371 101.858V101.855ZM19.6895 99.6522C19.4593 99.6522 19.3669 99.4599 19.3669 99.2411C19.3669 98.632 19.7047 97.7345 20.2302 97.7345C20.462 97.7345 20.5528 97.9267 20.5528 98.1455C20.5528 98.7547 20.2166 99.6522 19.6895 99.6522ZM21.2041 101.527C21.2041 101.083 20.8043 100.936 20.153 100.74C19.5911 100.576 19.3397 100.527 19.3397 100.35C19.3397 100.202 19.4578 100.035 19.6971 99.9065C20.0987 99.8773 20.4752 99.7046 20.7546 99.4215C21.0341 99.1383 21.1968 98.7646 21.2117 98.3718C21.2129 98.2427 21.1866 98.1148 21.1344 97.9962H21.9129L22.0326 97.6059H20.7982C20.6485 97.5155 20.4759 97.4679 20.2999 97.4684C19.8851 97.4728 19.4878 97.632 19.1893 97.9132C18.8908 98.1944 18.7138 98.5764 18.6945 98.9809C18.6849 99.1945 18.7548 99.4043 18.8912 99.5717C19.0275 99.739 19.2212 99.8527 19.4366 99.8917C18.9822 100.091 18.7293 100.323 18.7293 100.597C18.7264 100.669 18.7422 100.741 18.7753 100.805C18.8084 100.87 18.8577 100.926 18.9186 100.967C17.8584 101.262 17.4525 101.611 17.4525 102.096C17.4525 102.581 18.0901 102.767 18.8474 102.767C20.1318 102.767 21.2041 102.09 21.2041 101.521V101.527ZM16.3014 98.5921C16.7649 98.5921 16.7725 98.7769 16.7013 99.2692H16.9678L17.5858 97.6192H17.3192C17.0875 98.0095 16.9057 98.2964 16.3999 98.2964H15.3836L15.8955 96.9213C16.0636 96.4615 16.1621 96.3728 16.7937 96.3728H17.248C17.9008 96.3728 17.9781 96.5443 17.9781 97.1815H18.2371L18.4536 96.0579H14.5824L14.5127 96.2708C15.27 96.4186 15.3336 96.4896 14.9822 97.4344L14.1416 99.6802C13.7903 100.618 13.6433 100.693 12.7785 100.844L12.7225 101.055H17.0239L17.7948 99.8636H17.501C17.0102 100.315 16.3923 100.751 15.532 100.751C14.39 100.751 14.4945 100.703 14.8732 99.6832L15.2806 98.595L16.3014 98.5921ZM16.8633 95.7222L18.2264 94.8056V94.6577H17.4177L16.6604 95.7193L16.8633 95.7222Z" fill="black"/>
<path d="M34.0023 89.4149C34.2628 89.4149 34.487 89.6071 34.3673 90.0935L33.1556 90.367C33.3662 89.82 33.716 89.4149 33.9962 89.4149H34.0023ZM34.6626 91.3118H34.4249C34.1219 91.6607 33.8008 91.9343 33.4782 91.9343C33.1556 91.9343 32.9799 91.7435 32.9799 91.3118C32.9806 91.1369 32.9994 90.9626 33.036 90.7914L34.9868 90.1689C35.3654 89.2922 34.9095 88.9092 34.3809 88.9092C33.4616 88.9092 32.412 90.4084 32.412 91.7184C32.412 92.3098 32.6998 92.6292 33.1496 92.6292C33.6751 92.6292 34.2219 92.1294 34.6642 91.3074L34.6626 91.3118ZM34.284 88.5633L35.6471 87.3169V87.169H34.9095L34.078 88.5633H34.284ZM30.2643 89.4385H30.7762L29.7524 92.1708C29.6615 92.403 29.7872 92.6366 30.0341 92.6366C30.6157 92.6366 31.5487 92.0747 31.8849 91.3059H31.7032C31.4427 91.5735 30.9459 91.9298 30.5172 92.0052L31.4578 89.437H32.412L32.5316 89.0467H31.5987L31.9561 88.0606H31.585L30.9186 89.0467L30.2583 89.1561L30.2643 89.4385ZM29.76 89.7461C29.8932 89.3025 29.8236 88.9107 29.4722 88.9107C29.0587 88.9107 28.9527 89.2182 28.5331 90.0935V89.5982C28.5331 89.2345 28.4135 88.9137 28.0788 88.9137C27.685 88.9137 27.3215 89.5051 27.0549 90.0965H27.2367C27.426 89.8289 27.6017 89.6721 27.741 89.6721C27.9091 89.6721 28.0015 89.925 27.741 90.4868L26.9837 92.1294C26.8444 92.4384 26.9837 92.6366 27.3003 92.6366C27.4896 92.6366 27.5729 92.5878 27.6501 92.3896L28.3938 90.4676C28.6043 90.2148 28.7937 89.9945 29.0314 89.749L29.76 89.7461ZM25.454 89.4164C25.713 89.4164 25.9372 89.6086 25.819 90.095L24.6074 90.3685C24.8179 89.8215 25.1693 89.4164 25.4495 89.4164H25.454ZM26.1159 91.3133H25.8766C25.5737 91.6622 25.2526 91.9357 24.93 91.9357C24.6074 91.9357 24.4317 91.745 24.4317 91.3133C24.4324 91.1384 24.4511 90.9641 24.4877 90.7929L26.4309 90.1704C26.8096 89.2936 26.3537 88.9107 25.8251 88.9107C24.9072 88.9107 23.8561 90.4099 23.8561 91.7199C23.8561 92.3113 24.1424 92.6306 24.5922 92.6306C25.1178 92.6306 25.6645 92.1309 26.1144 91.3089L26.1159 91.3133ZM21.3556 92.0792C21.1662 92.0792 20.9012 91.9076 20.9012 91.7568C20.9506 91.577 21.0139 91.401 21.0905 91.2305L21.4055 90.4144C21.7433 90.0255 22.2552 89.6071 22.5415 89.6071C22.7172 89.6071 22.8444 89.7165 22.8444 89.9693C22.8444 90.7086 22.1295 92.0792 21.3571 92.0792H21.3556ZM23.5668 89.6692C23.5668 89.1147 23.3563 88.9092 22.961 88.9092C22.4703 88.9092 22.0068 89.4149 21.5449 90.0314L22.7187 87.0256L22.6551 86.9502L21.4283 87.0877V87.2355L21.6661 87.4144C21.8842 87.5786 21.8175 87.7486 21.6176 88.2424L20.3544 91.4197C20.2699 91.6074 20.202 91.8018 20.1515 92.0008C20.1515 92.329 20.6058 92.638 21.0208 92.638C21.975 92.638 23.5668 90.9599 23.5668 89.681V89.6692ZM19.7516 89.3025C19.7706 89.262 19.7795 89.2176 19.7774 89.1731C19.7754 89.1285 19.7625 89.0851 19.7398 89.0464C19.7172 89.0077 19.6854 88.9748 19.6472 88.9504C19.609 88.926 19.5653 88.9109 19.5199 88.9063C18.9595 88.9063 18.2931 89.3986 18.0265 90.0891H18.2083C18.3915 89.8348 18.7005 89.5553 18.9868 89.5065L17.9144 92.2314C17.8932 92.2718 17.8827 92.3168 17.8837 92.3621C17.8847 92.4075 17.8973 92.452 17.9203 92.4914C17.9432 92.5309 17.9759 92.5641 18.0154 92.5882C18.0548 92.6122 18.0998 92.6263 18.1462 92.6292C18.6793 92.6292 19.3033 92.1294 19.5699 91.4464H19.3866C19.2049 91.6992 18.8959 91.9801 18.6081 92.0274L19.7516 89.3025ZM19.9485 87.9334C20.069 87.9334 20.1846 87.8867 20.2698 87.8035C20.355 87.7203 20.4029 87.6075 20.4029 87.4898C20.4065 87.4284 20.3972 87.3668 20.3756 87.3089C20.354 87.2511 20.3205 87.1981 20.2771 87.1534C20.2338 87.1086 20.1816 87.0729 20.1237 87.0485C20.0657 87.0242 20.0033 87.0116 19.9402 87.0116C19.8771 87.0116 19.8147 87.0242 19.7567 87.0485C19.6988 87.0729 19.6466 87.1086 19.6032 87.1534C19.5599 87.1981 19.5264 87.2511 19.5048 87.3089C19.4832 87.3668 19.4739 87.4284 19.4775 87.4898C19.4775 87.5489 19.4895 87.6073 19.5129 87.6617C19.5363 87.7161 19.5706 87.7654 19.6138 87.8067C19.6569 87.848 19.7081 87.8805 19.7643 87.9022C19.8205 87.924 19.8805 87.9346 19.941 87.9334H19.9485ZM17.1147 87.4898H14.5687L14.4991 87.7013C15.2564 87.8491 15.32 87.9216 14.9686 88.8663L14.1416 91.1107C13.7903 92.0496 13.6433 92.125 12.7785 92.2758L12.7225 92.4961H16.6074L17.4495 91.0309H17.1466C16.6695 91.5454 16.1091 92.1886 15.2458 92.1886C14.5945 92.1886 14.5172 92.0792 14.8671 91.1196L15.6956 88.8752C16.0394 87.9364 16.1924 87.861 17.0587 87.7101L17.1147 87.4898Z" fill="black"/>
<path d="M27.1306 23.3252C27.2669 23.1921 27.4047 23.0487 27.541 22.9053C27.7883 22.6213 28.056 22.3549 28.3422 22.1083C28.4246 22.0351 28.5116 21.9669 28.6028 21.9043C28.627 21.8806 28.627 21.8333 28.6512 21.8097C28.5301 21.857 28.4589 21.9575 28.3392 21.9974C28.315 21.9974 28.2908 21.9738 28.315 21.9516L28.5709 21.7638H28.5543C28.5301 21.7638 28.5301 21.7402 28.5301 21.7165C28.2181 21.6692 27.9787 21.8806 27.7622 22.0684C27.7152 22.0921 27.6667 22.0448 27.6425 22.0448C27.282 22.1616 27.0185 22.4661 26.658 22.6066V22.5608C26.5066 22.6066 26.3748 22.6923 26.2264 22.7249C26.026 22.7552 25.8227 22.7626 25.6206 22.7471C25.3273 22.7813 25.0361 22.8306 24.7482 22.8949H24.7224C24.5668 22.936 24.4169 22.9951 24.2756 23.0708L24.2589 23.0797L24.2241 23.1211C24.1795 23.1805 24.1234 23.2307 24.059 23.269C23.9163 23.3535 23.7833 23.4526 23.6622 23.5647C23.6508 23.573 23.6371 23.5777 23.6228 23.578C23.4941 23.6977 23.3669 23.8205 23.2366 23.9387C23.2135 23.9495 23.1875 23.9526 23.1624 23.9476V23.9476L23.176 23.9254L23.2381 23.8264C23.2608 23.7894 23.2851 23.7539 23.3093 23.7184C23.3335 23.683 23.3744 23.6209 23.4108 23.5706C23.413 23.5686 23.4148 23.5663 23.4161 23.5636C23.4173 23.5609 23.418 23.558 23.418 23.5551C23.418 23.5521 23.4173 23.5492 23.4161 23.5465C23.4148 23.5439 23.413 23.5415 23.4108 23.5395C23.4022 23.5317 23.3907 23.5275 23.379 23.5277C23.5013 23.4145 23.6364 23.3153 23.7819 23.232V23.232C23.7652 23.232 23.7425 23.232 23.7546 23.2084C23.7667 23.1847 23.7819 23.1655 23.7955 23.1448C23.8091 23.1241 23.7955 23.13 23.8031 23.1241L23.7849 23.1049C23.7456 23.1277 23.7081 23.1534 23.6728 23.1817C23.6153 23.232 23.5698 23.3296 23.482 23.3296C23.4699 23.3303 23.4577 23.3303 23.4456 23.3296C23.437 23.3285 23.4287 23.3254 23.4214 23.3207V23.3207V23.3133L23.4335 23.2941C23.437 23.2869 23.441 23.28 23.4456 23.2734L23.4547 23.2571C23.4597 23.247 23.4652 23.2371 23.4714 23.2276C23.4714 23.2276 23.4789 23.2128 23.4835 23.2069L23.5153 23.1551L23.5289 23.13C23.538 23.1152 23.5471 23.1019 23.5547 23.0871C23.5573 23.0834 23.5589 23.0791 23.5594 23.0746C23.5598 23.0702 23.5591 23.0657 23.5573 23.0615C23.5555 23.0574 23.5526 23.0538 23.549 23.051C23.5453 23.0482 23.541 23.0464 23.5365 23.0457C23.5812 22.9864 23.6372 22.9362 23.7016 22.8979H23.694C23.7864 22.8535 23.8773 22.7973 23.9697 22.75L24.009 22.7175C23.8741 22.762 23.7458 22.8236 23.6274 22.9008C23.6129 22.9066 23.5992 22.9141 23.5865 22.923C23.5755 22.925 23.5642 22.9239 23.5537 22.92C23.5433 22.9161 23.5342 22.9095 23.5274 22.9008C23.5254 22.8951 23.5254 22.8888 23.5274 22.8831C23.5516 22.8372 23.6243 22.8136 23.6789 22.7663C23.7031 22.7663 23.7273 22.7663 23.7273 22.7899C24.4952 22.1985 25.5448 22.3464 26.4399 22.0403L26.655 21.8999C26.7762 21.8525 26.8716 21.7357 27.0155 21.6648C27.2094 21.5352 27.3529 21.3456 27.4229 21.1266C27.4207 21.1089 27.4127 21.0923 27.4002 21.0793C27.0974 21.3973 26.7382 21.6592 26.34 21.8525C25.8356 22.1098 25.2798 22.064 24.7557 22.1335C24.78 22.0876 24.8284 22.0876 24.8769 22.0876C24.8769 22.0167 24.9238 21.993 24.9723 21.9472H25.045C25.0677 21.9472 25.0677 21.8999 25.092 21.8999C25.1404 21.8999 25.2116 21.8762 25.1889 21.8762C25.1162 21.7831 24.9723 21.9472 24.8527 21.8762C24.8996 21.8289 24.8769 21.7594 24.9238 21.7284H25.0208C25.0255 21.6931 25.042 21.6604 25.0677 21.6352C25.4282 21.4238 25.7644 21.2597 26.1007 21.0719C26.028 21.0719 25.981 21.1429 25.9083 21.0955C25.9568 21.0955 25.9083 21.0246 25.9568 21.0246C26.2203 20.9551 26.4369 20.8146 26.7004 20.72C26.605 20.72 26.5323 20.791 26.4369 20.72C26.4839 20.6978 26.5081 20.6505 26.5884 20.6505V20.5795C26.5884 20.5574 26.6126 20.5574 26.6353 20.5574C26.6175 20.5546 26.601 20.5463 26.5884 20.5337C26.6126 20.4864 26.6838 20.5101 26.7323 20.4627C26.708 20.4627 26.6596 20.4627 26.6596 20.4391C26.7423 20.3564 26.8534 20.3064 26.9716 20.2986C26.9473 20.2513 26.8761 20.2986 26.8761 20.2513C26.8761 20.2291 26.9004 20.2291 26.9246 20.2291H26.8761C26.8277 20.2055 26.8519 20.1582 26.8519 20.1345C27.0034 19.9704 27.0034 19.7604 27.0685 19.5727C27.0443 19.5727 27.02 19.5727 27.02 19.549C26.7807 19.8063 26.396 19.9009 26.0355 19.9926H25.9159C25.8504 20.018 25.7799 20.029 25.7095 20.025C25.6391 20.0209 25.5705 20.0017 25.5085 19.9689C25.4225 19.9142 25.3419 19.8518 25.2677 19.7826C25.0783 19.6646 24.8749 19.5697 24.6618 19.5002C24.0658 19.3106 23.4406 19.2235 22.814 19.243C23.0776 19.0951 23.3684 19.0951 23.6531 19.0094C24.062 18.8911 24.4452 18.7506 24.8784 18.7743C24.7986 18.7625 24.7174 18.7625 24.6376 18.7743C24.3014 18.7506 23.9651 18.8452 23.6062 18.9221C23.3653 18.9694 23.1518 19.0626 22.9095 19.1099C22.758 19.1572 22.6929 19.2977 22.5263 19.274V19.203C22.7656 18.9221 23.0533 18.6412 23.435 18.6116C23.8667 18.5421 24.2741 18.6116 24.7073 18.6589C25.014 18.6908 25.3178 18.7457 25.616 18.8231C25.7357 18.8231 25.7599 19.0108 25.8553 19.033C26.0068 19.0803 26.1446 19.033 26.2885 19.1276C26.2885 19.0803 26.2642 19.033 26.2885 18.9872C26.3839 18.8926 26.5035 19.0108 26.6005 18.9635C26.7913 18.8467 26.4324 18.6353 26.3354 18.4712C26.338 18.4532 26.3465 18.4366 26.3597 18.4239C26.552 18.588 26.6959 18.7758 26.9352 18.8926C27.0564 18.9399 27.3441 19.0108 27.2957 18.8689C27.176 18.6116 26.9352 18.4017 26.7444 18.1666V18.0735C26.6959 18.0735 26.6959 18.0498 26.6717 18.0261V17.933C26.5762 17.8857 26.6005 17.7851 26.552 17.7216C26.4793 17.6048 26.5278 17.4406 26.4793 17.3002C26.4368 17.1698 26.4049 17.0363 26.3839 16.901C26.3112 16.5033 26.2158 16.1514 26.1673 15.7773C26.1204 15.3338 26.4324 14.9804 26.6474 14.5812C26.8037 14.2802 27.0349 14.0225 27.3199 13.8316C27.4152 13.5531 27.5701 13.2976 27.7743 13.082C27.9824 12.8739 28.2354 12.7138 28.5149 12.6133C28.7234 12.5227 28.9368 12.4432 29.1541 12.3752H12.6891V24.7756H24.3513C24.8057 24.4547 25.2601 24.301 25.9023 23.9949C26.2021 23.8619 26.8973 23.5528 27.1306 23.3252ZM23.4396 21.647C23.3911 21.647 23.2957 21.6692 23.3199 21.6234C23.3426 21.5051 23.5107 21.5051 23.6077 21.4593C23.6546 21.4356 23.7273 21.3883 23.7758 21.412C23.8227 21.4829 23.8954 21.4593 23.9439 21.5051C23.7985 21.647 23.6077 21.5761 23.4396 21.647ZM19.7667 21.131C19.7535 21.1183 19.745 21.1017 19.7425 21.0837C20.0381 20.7111 20.2953 20.311 20.5104 19.8891C20.8166 19.7141 21.0921 19.4925 21.3267 19.2326C21.7059 18.8097 22.1619 18.4588 22.6717 18.1977C22.8762 18.1345 23.0968 18.1428 23.2957 18.2213C23.223 18.3145 23.1033 18.2908 23.0064 18.3692C22.9935 18.3706 22.9804 18.3692 22.9681 18.3651C22.9558 18.3611 22.9445 18.3543 22.9352 18.3455C22.9444 18.3362 22.9513 18.325 22.9555 18.3127C22.9597 18.3004 22.961 18.2874 22.9594 18.2745C22.7186 18.5333 22.3824 18.6501 22.1915 18.9547C22.0401 19.1883 21.9507 19.4943 21.6387 19.5638C21.5433 19.5875 21.663 19.4943 21.6145 19.5165C20.8708 19.96 20.3422 20.4982 19.7667 21.131ZM21.7584 19.5845C21.7357 19.6318 21.7084 19.6362 21.6872 19.6776C21.6681 19.7199 21.6335 19.7537 21.5903 19.7723C21.5675 19.7723 21.5433 19.7723 21.5433 19.7486C21.5538 19.7001 21.577 19.6551 21.6108 19.618C21.6445 19.5809 21.6875 19.5531 21.7357 19.5372C21.7584 19.5372 21.7584 19.5608 21.7584 19.5845V19.5845ZM22.8701 23.0945C22.8562 23.1218 22.836 23.1456 22.811 23.164C22.8413 23.164 22.8625 23.1817 22.8428 23.1995C22.7921 23.2531 22.7301 23.2955 22.6611 23.3237H22.6247L22.5354 23.4065C22.5066 23.4301 22.3748 23.4065 22.4142 23.3784C22.4763 23.3252 22.5323 23.2675 22.5914 23.2143C22.6272 23.1859 22.6607 23.1548 22.6914 23.1211C22.7066 23.1021 22.7238 23.0848 22.7429 23.0694C22.7656 23.0649 22.8928 23.0487 22.8701 23.0945ZM22.4399 22.9008C22.3506 22.9629 22.2612 23.025 22.1658 23.0797C22.0704 23.1344 21.9568 23.1817 21.8493 23.2276C21.8452 23.2214 21.8389 23.2169 21.8316 23.215C21.8243 23.213 21.8166 23.2139 21.8099 23.2172C21.7213 23.2666 21.6398 23.3273 21.5675 23.3976L21.5342 23.4287L21.4994 23.4627C21.4811 23.4799 21.4639 23.4982 21.4479 23.5174C21.4389 23.5296 21.4282 23.5405 21.4161 23.5499C21.4009 23.5602 21.36 23.5602 21.3631 23.5321L21.3207 23.5543L21.2828 23.5735C21.2779 23.5721 21.2726 23.5721 21.2677 23.5735H21.2495L21.1631 23.646C21.1127 23.6915 21.0661 23.741 21.0238 23.7938V23.8027L21.0162 23.8131L20.9996 23.8367C20.994 23.8414 20.9872 23.8445 20.9799 23.8456C20.976 23.8409 20.9725 23.836 20.9693 23.8308V23.8205C20.9693 23.8086 20.9557 23.7953 20.9481 23.782V23.7717L21.0238 23.6874L21.0496 23.6563L21.0889 23.6061L21.1041 23.5883C21.1298 23.5543 21.1556 23.5218 21.1783 23.4893L21.1874 23.4745C21.1994 23.4583 21.2105 23.4415 21.2207 23.4242L21.2465 23.3784V23.3695C21.2556 23.3519 21.2632 23.3336 21.2692 23.3148V23.3148C21.2698 23.3099 21.2698 23.3049 21.2692 23.3C21.2692 23.2911 21.2692 23.2823 21.2692 23.2734C21.27 23.2621 21.27 23.2507 21.2692 23.2394C21.2703 23.2368 21.2709 23.2341 21.2709 23.2313C21.2709 23.2285 21.2703 23.2257 21.2692 23.2231C21.2973 23.1787 21.3292 23.1366 21.3646 23.0975H21.354C21.3192 23.1196 21.2964 23.1492 21.2646 23.1729C21.2328 23.1965 21.1904 23.1596 21.2222 23.1374C21.254 23.1152 21.2586 23.1049 21.2767 23.0886C21.2949 23.0723 21.2767 23.0886 21.2767 23.0886C21.3145 23.0458 21.3556 23.0057 21.3994 22.9688C21.4267 22.9496 21.4509 22.9333 21.4736 22.9141L21.4842 22.9053C21.5003 22.8842 21.5181 22.8645 21.5372 22.8461V22.8461C21.7675 22.6303 22.1537 22.6391 22.4566 22.5016C22.5763 22.4543 22.7201 22.5253 22.8413 22.5016C22.9163 22.4945 22.9917 22.511 23.0564 22.5489C22.8398 22.6509 22.6399 22.7811 22.443 22.9008H22.4399ZM22.9322 21.2744C22.9079 21.2508 23.0034 21.2744 23.0276 21.2271H22.8398C22.8156 21.2271 22.8156 21.2035 22.8156 21.1813C22.6944 21.2035 22.5505 21.2508 22.4309 21.2744C22.2627 21.3218 22.1188 21.4386 21.9265 21.4859C21.663 21.579 21.4464 21.7905 21.1586 21.8836C21.1344 21.8836 21.1344 21.8599 21.1344 21.8363C21.1586 21.7668 21.2555 21.7431 21.3025 21.6722C21.3025 21.65 21.3025 21.6263 21.2783 21.6263C21.4706 21.3676 21.7326 21.2271 21.975 21.0172V20.9462C22.0477 20.8531 22.1673 20.7984 22.2158 20.689C22.2641 20.5906 22.3501 20.5147 22.4551 20.4775C22.4308 20.4539 22.3824 20.4539 22.3824 20.408C22.287 20.408 22.1915 20.4539 22.0946 20.3844C22.137 20.3442 22.1891 20.3152 22.2461 20.3001C22.235 20.2985 22.2245 20.2947 22.2151 20.2888C22.2057 20.283 22.1977 20.2752 22.1915 20.2661C22.1673 20.2203 22.237 20.167 22.3112 20.1493C22.3854 20.1316 22.5278 20.1256 22.599 20.0561C22.4309 20.0325 22.2385 20.1035 22.0704 20.0088C22.1738 19.7082 22.3904 19.4572 22.6762 19.3065C22.6989 19.3065 22.7474 19.3065 22.7474 19.3302C22.7497 19.3853 22.7315 19.4393 22.6961 19.4823C22.6608 19.5252 22.6106 19.5542 22.555 19.5638C22.7523 19.5889 22.9459 19.636 23.1321 19.7043C23.1079 19.7516 23.0594 19.7279 23.0352 19.7279C23.1563 19.7989 23.3002 19.7516 23.4199 19.8447C23.3472 19.9157 23.276 19.8447 23.2033 19.8447C23.9485 20.0561 24.7406 20.2203 25.3646 20.689C24.8364 20.9224 24.2794 21.0879 23.7076 21.1813C23.6426 21.185 23.5774 21.177 23.5153 21.1576C23.5153 21.1813 23.5153 21.2271 23.4911 21.2271C23.4082 21.2176 23.3243 21.2341 23.2518 21.2744C23.2043 21.3037 23.1492 21.3189 23.093 21.3184C23.0369 21.3179 22.9821 21.3016 22.9352 21.2715L22.9322 21.2744Z" fill="#000091"/>
<path d="M47.6199 12.387H33.9569C34.002 12.4017 34.0452 12.4215 34.0856 12.4461L34.4309 12.625C34.6139 12.7085 34.7708 12.8381 34.8853 13.0005C34.9338 13.07 35.005 13.2105 34.958 13.3051C34.9095 13.4219 34.8853 13.6097 34.7657 13.6555C34.6059 13.719 34.4305 13.7354 34.2613 13.7028C34.1638 13.6986 34.0671 13.6827 33.9735 13.6555C34.334 13.8034 34.6687 13.9601 34.9095 14.2883C34.9338 14.3357 35.0292 14.3593 35.1261 14.3593C35.1488 14.3593 35.1488 14.4066 35.1488 14.4288C35.1019 14.4761 35.0534 14.4998 35.0777 14.5766H35.1488C35.27 14.5293 35.2458 14.2943 35.4139 14.3652C35.4729 14.4008 35.5157 14.4572 35.5334 14.5226C35.5512 14.5881 35.5425 14.6577 35.5093 14.7171C35.4195 14.8019 35.3233 14.88 35.2215 14.9507C35.2095 14.9765 35.2033 15.0045 35.2033 15.0328C35.2033 15.0611 35.2095 15.0891 35.2215 15.1148C35.2809 15.1994 35.3217 15.295 35.3412 15.3957C35.4139 15.5599 35.4381 15.7476 35.5093 15.9118C35.6234 16.252 35.6802 16.608 35.6774 16.9659C35.6774 17.1537 35.582 17.3178 35.6532 17.5041C35.7171 17.6797 35.8064 17.8455 35.9182 17.9965C36.0137 18.1164 36.1018 18.2418 36.1818 18.372C36.3332 18.6056 36.5892 18.8407 36.4696 19.1216C36.3969 19.2857 36.1333 19.2695 35.9652 19.3552C35.8213 19.4735 35.941 19.6598 36.0137 19.7781C36.1333 19.988 35.8622 20.1285 35.7017 20.1995C35.7501 20.2689 35.8455 20.2468 35.8698 20.2926C35.894 20.4109 36.0212 20.4804 35.941 20.5972C35.8455 20.7376 35.5578 20.8086 35.7017 21.02C35.7971 21.1842 35.735 21.366 35.6774 21.5346C35.6412 21.6237 35.5828 21.7026 35.5074 21.764C35.432 21.8255 35.3421 21.8676 35.2458 21.8864C35.0984 21.9294 34.9426 21.9375 34.7914 21.9101C34.7476 21.8841 34.6985 21.8679 34.6475 21.8628C34.2386 21.8155 33.8312 21.6987 33.4222 21.6987C33.3065 21.7162 33.1935 21.748 33.086 21.7933C32.9818 21.8676 32.8849 21.9512 32.7967 22.0432V22.0432L32.7437 22.1008L32.7134 22.1363L32.6922 22.16C32.6229 22.2456 32.5601 22.336 32.5044 22.4305C32.5003 22.4361 32.4968 22.4421 32.4938 22.4483C32.4867 22.4588 32.4801 22.4697 32.4741 22.4808C32.399 22.618 32.3382 22.7621 32.2924 22.9111C32.1303 23.4478 32.2015 23.9076 32.3151 24.02C32.3469 24.051 33.1072 24.2802 33.6373 24.5108C33.8326 24.5908 34.0219 24.6842 34.2037 24.7903H47.6214L47.6199 12.387Z" fill="#E1000F"/>
<path d="M34.7687 16.9113C34.8656 16.935 35.0095 16.935 35.0095 16.9808C34.961 17.1686 34.6732 17.2159 34.5294 17.4037H34.4567C34.3855 17.4495 34.4082 17.5678 34.337 17.5678C34.2642 17.5523 34.1883 17.56 34.1204 17.5899C34.1632 17.6419 34.2185 17.6826 34.2815 17.7085C34.3444 17.7343 34.413 17.7444 34.4809 17.7378C34.5013 17.7446 34.5192 17.7573 34.5322 17.7742C34.5452 17.791 34.5526 17.8113 34.5536 17.8324C34.5717 17.8306 34.5885 17.8221 34.6005 17.8088C34.6248 17.8088 34.649 17.8088 34.649 17.8324V17.9256C34.5763 18.0202 34.4567 17.9729 34.3612 17.9965C34.5418 18.044 34.732 18.044 34.9125 17.9965C35.064 17.9492 34.9125 17.7156 35.0095 17.5973C34.961 17.5973 35.0095 17.5278 34.961 17.5278C35.0095 17.4805 35.0564 17.411 35.1049 17.38C35.133 17.3807 35.1609 17.3747 35.186 17.3623C35.2111 17.3499 35.2327 17.3316 35.2488 17.309C35.2488 17.2632 35.1534 17.2395 35.1776 17.1922C35.3291 17.0991 35.4411 16.9586 35.3927 16.8167C35.3684 16.7472 35.1776 16.7472 35.0564 16.6999C34.9208 16.6736 34.7805 16.6818 34.649 16.7235C34.5263 16.7442 34.4057 16.7754 34.2885 16.8167C34.1257 16.8719 33.9724 16.9512 33.8342 17.0518C34.0059 16.9885 34.1827 16.939 34.3628 16.9039C34.4978 16.8887 34.6343 16.8912 34.7687 16.9113Z" fill="#9D9D9C"/>
</g>
<defs>
<clipPath id="clip0">
<rect width="152" height="122" fill="white"/>
</clipPath>
</defs>
</svg>
