<svg width="436" height="407" viewBox="0 0 436 407" fill="none" xmlns="http://www.w3.org/2000/svg">
<g clip-path="url(#clip0)">
<path d="M358.56 63.2582C364.884 71.3104 373.968 91.6709 364.424 98.5728C354.88 105.475 331.079 103.634 324.294 98.5728C317.51 93.5115 321.65 68.3195 334.298 60.7275C346.946 53.1354 360.17 58.7719 358.56 63.2582Z" fill="#263238"/>
<path d="M326.249 172.883C326.249 172.883 326.709 229.134 330.274 275.376C337.863 321.159 334.068 383.851 334.068 383.851H341.312C341.312 383.851 359.25 300.568 351.086 273.766C355.915 239.372 354.42 173.804 354.42 173.804L326.249 172.883Z" fill="#FFB573"/>
<path d="M317.625 120.084C317.28 120.544 316.82 121.119 316.36 121.579L314.98 123.19C314.061 124.225 313.141 125.26 312.106 126.295C310.151 128.366 308.081 130.322 306.012 131.932C303.827 133.657 301.642 135.153 299.342 136.303C297.043 137.454 294.743 138.259 292.328 138.604L291.753 138.719C291.983 138.604 292.443 138.834 292.558 138.834C292.673 138.949 292.443 138.834 292.213 138.719C291.753 138.374 291.063 137.454 290.489 136.533C289.339 134.578 288.189 132.162 287.269 129.631C286.234 127.101 285.429 124.57 284.624 121.924C283.819 119.279 283.015 116.633 282.21 114.102V113.987C281.75 112.607 280.37 111.802 278.875 112.147C277.61 112.492 276.92 113.642 276.92 114.907C277.035 117.783 277.495 120.659 277.84 123.535C278.3 126.411 278.875 129.171 279.565 132.047C280.37 134.923 281.175 137.799 282.67 140.674C283.474 142.17 284.279 143.665 285.774 145.276C286.464 146.081 287.499 146.886 288.879 147.576C290.259 148.267 292.098 148.497 293.823 148.151L293.248 148.267C297.043 148.036 300.607 147.116 303.827 145.621C307.046 144.24 309.921 142.4 312.681 140.329C315.325 138.259 317.855 136.073 320.155 133.773C321.305 132.622 322.339 131.357 323.489 130.092C324.064 129.516 324.524 128.826 325.099 128.136C325.674 127.446 326.019 126.871 326.594 126.065C328.319 123.65 327.744 120.314 325.329 118.588C322.914 116.978 319.695 117.438 317.97 119.739L317.625 120.084Z" fill="#FFB573"/>
<path d="M271.631 108.35L274.161 104.669C274.966 103.404 276.69 103.174 277.84 104.209C279.565 105.705 280.715 107.66 281.29 109.846L282.785 116.748L281.06 121.349C276.69 121.004 274.046 114.907 274.046 114.907L271.631 111.226C271.056 110.306 271.056 109.156 271.631 108.35Z" fill="#FFB573"/>
<path d="M310.956 122.154C309.346 124.11 307.851 125.49 307.851 125.49C307.851 125.49 310.611 137.223 317.28 140.904C319.695 139.754 320.04 138.144 320.04 138.144L310.956 122.154Z" fill="#263238"/>
<path d="M326.249 113.067C316.475 114.217 313.486 119.279 309.346 122.5C309.116 129.401 319.235 139.409 319.235 139.409C319.235 139.409 339.817 111.572 326.249 113.067Z" fill="#407BFF"/>
<path d="M316.705 121.924C315.555 137.684 325.099 149.532 325.904 166.096L365.574 165.176C364.424 149.072 364.884 150.682 370.518 119.509C371.208 115.828 368.679 112.492 364.999 112.032C362.009 111.686 358.445 111.341 354.535 111.341C347.406 111.226 341.542 111.111 335.333 111.917C331.193 112.377 326.824 113.182 323.489 113.872C319.465 114.447 317.05 117.898 316.705 121.924Z" fill="#407BFF"/>
<path d="M335.333 111.686L354.535 111.111C354.535 111.111 353.96 118.588 336.483 126.871C328.434 117.438 335.333 111.686 335.333 111.686Z" fill="white"/>
<path d="M336.368 120.199C333.723 120.889 329.814 125.49 328.664 130.207C320.73 118.243 335.333 111.687 335.333 111.687L336.368 120.199Z" fill="#263238"/>
<path d="M340.967 120.774C343.612 121.579 348.556 126.411 349.361 131.127C358.1 119.739 354.535 111.111 354.535 111.111L340.967 120.774Z" fill="#263238"/>
<path d="M352.006 89.4854C350.971 95.6971 350.051 107.085 354.535 111.111C354.535 111.111 346.716 119.624 337.748 121.809C333.148 117.438 335.333 111.571 335.333 111.571C342.232 109.731 341.887 104.554 340.507 99.8382L352.006 89.4854Z" fill="#FFB573"/>
<path opacity="0.2" d="M347.291 93.7415L340.507 99.9532C340.852 101.103 341.082 102.254 341.197 103.404C343.842 102.944 347.406 99.9532 347.521 97.1924C347.636 95.697 347.521 94.4316 347.291 93.7415Z" fill="black"/>
<path d="M358.215 77.9822C356.03 88.105 355.34 92.4762 349.476 96.9624C340.507 103.749 328.549 98.8029 327.629 88.3351C326.824 78.7874 330.389 63.8333 341.082 61.3026C351.431 58.6569 360.4 67.8594 358.215 77.9822Z" fill="#FFB573"/>
<path d="M342.922 78.9023C342.807 79.7075 342.232 80.3977 341.657 80.2827C341.082 80.1677 340.737 79.4775 340.852 78.6723C340.967 77.867 341.542 77.1769 342.117 77.2919C342.692 77.2919 343.037 78.0971 342.922 78.9023Z" fill="#263238"/>
<path d="M332.228 77.407C332.113 78.2122 331.538 78.9024 330.963 78.7873C330.388 78.6723 330.043 77.9821 330.158 77.1769C330.273 76.3717 330.848 75.6815 331.423 75.7965C331.998 75.7965 332.343 76.4867 332.228 77.407Z" fill="#263238"/>
<path d="M331.653 75.7967L329.699 74.8765C329.814 74.8765 330.618 76.6019 331.653 75.7967Z" fill="#263238"/>
<path d="M335.793 79.3625C335.793 79.3625 333.838 82.6985 331.998 84.1939C332.918 85.3442 334.873 85.2292 334.873 85.2292L335.793 79.3625Z" fill="#ED893E"/>
<path d="M337.517 88.6801C337.058 88.6801 336.598 88.6801 336.138 88.5651C336.023 88.5651 335.908 88.4501 335.908 88.335C335.908 88.22 336.023 88.105 336.138 88.105C339.817 88.6801 341.887 86.3795 341.887 86.3795C342.002 86.2645 342.117 86.2645 342.232 86.3795C342.347 86.4945 342.347 86.6096 342.232 86.7246C342.232 86.7246 340.507 88.5651 337.517 88.6801Z" fill="#263238"/>
<path d="M359.825 83.7337C359.02 85.6893 357.41 87.1847 355.8 87.8749C353.386 88.9101 351.776 86.8396 352.121 84.3089C352.466 82.1233 354.076 78.7874 356.72 78.7874C359.365 78.9024 360.63 81.4331 359.825 83.7337Z" fill="#FFB573"/>
<path d="M346.946 74.9913C346.831 74.9913 346.716 74.8762 346.601 74.7612C345.222 73.0357 343.382 73.2658 343.382 73.2658C343.152 73.2658 342.922 73.1508 342.807 72.8057C342.807 72.5756 342.922 72.3455 343.267 72.2305C343.382 72.2305 345.682 72.0004 347.406 74.071C347.636 74.3011 347.521 74.6462 347.291 74.7612C347.176 74.9913 347.061 74.9913 346.946 74.9913Z" fill="#263238"/>
<path d="M330.389 72.2306C330.274 72.2306 330.159 72.1155 330.159 72.0005C330.044 71.7704 330.159 71.4254 330.389 71.3103C332.803 70.045 334.758 71.0803 334.873 71.1953C335.103 71.3103 335.218 71.6554 335.103 71.8855C334.988 72.1155 334.643 72.2306 334.413 72.1155C334.298 72.1155 332.803 71.1953 330.849 72.2306C330.619 72.2306 330.504 72.2306 330.389 72.2306Z" fill="#263238"/>
<path d="M342.347 77.2921L340.392 76.3718C340.507 76.4869 341.197 78.2123 342.347 77.2921Z" fill="#263238"/>
<path d="M342.232 173.458C342.232 173.458 347.636 229.824 355.11 276.182C366.724 322.079 368.334 383.851 368.334 383.851H375.578C375.578 383.851 386.156 301.489 375.693 274.571C377.532 240.062 370.288 174.379 370.288 174.379L342.232 173.458Z" fill="#FFB573"/>
<path d="M352.696 399.725C353.961 398.345 359.135 396.389 359.135 396.389C359.135 396.389 363.734 393.399 366.494 381.09C366.609 380.745 366.839 380.515 367.069 380.515L375.923 378.329C376.383 378.214 376.958 378.559 377.073 379.02C377.303 379.825 377.418 380.63 377.533 381.895C377.648 383.046 377.762 384.886 377.877 386.037C378.222 390.293 378.567 399.955 378.567 399.955H377.533C377.533 399.955 376.958 393.974 376.268 391.213C375.578 388.337 373.853 391.788 372.933 394.894C372.128 398.115 367.874 401.451 361.435 401.681C353.846 401.911 351.431 401.221 352.696 399.725Z" fill="#263238"/>
<path d="M325.904 166.096C317.51 192.669 325.444 234.195 329.469 285.154C347.866 287.915 365.574 287.8 382.362 283.659C370.173 225.222 388.111 181.971 365.574 165.291L325.904 166.096Z" fill="#263238"/>
<path d="M381.097 277.102C381.327 278.137 381.442 279.172 381.672 280.208C364.884 284.234 347.291 284.349 329.124 281.703C329.009 280.553 328.894 279.517 328.894 278.367C346.946 281.013 364.424 280.898 381.097 277.102Z" fill="white"/>
<path opacity="0.2" d="M345.797 230.399L344.302 204.747L335.448 192.554L345.797 230.399Z" fill="black"/>
<path d="M362.124 123.765C363.159 125.03 364.079 125.95 364.999 127.101C366.034 128.136 366.954 129.171 367.989 130.206C370.058 132.162 372.128 134.118 374.313 135.958C378.797 139.524 383.512 142.86 389.146 145.391C390.526 145.966 392.021 146.541 393.515 147.001L394.665 147.346C395.125 147.461 395.585 147.576 396.045 147.691C396.85 147.806 397.655 147.921 398.46 148.036C401.564 148.266 404.439 148.151 407.199 147.921C412.833 147.461 418.237 146.541 423.641 145.161C425.021 144.815 425.941 143.32 425.596 141.94C425.251 140.789 424.216 139.984 423.067 139.869H422.952C417.662 139.754 412.258 139.754 406.969 139.524C404.439 139.409 401.794 139.179 399.495 138.719C398.92 138.604 398.345 138.489 397.885 138.374C397.655 138.259 397.425 138.259 397.195 138.144L396.39 137.799C395.355 137.338 394.205 136.878 393.17 136.418C391.101 135.383 388.916 134.003 386.961 132.622C384.891 131.242 382.937 129.631 380.982 127.906C379.027 126.295 377.187 124.455 375.348 122.614C374.428 121.694 373.508 120.774 372.588 119.854C371.783 118.933 370.748 117.898 370.058 117.093L369.943 116.978C367.989 114.792 364.654 114.562 362.469 116.518C360.515 118.243 360.285 121.579 362.124 123.765Z" fill="#FFB573"/>
<path d="M375.693 119.969C377.188 122.039 378.567 123.535 378.567 123.535C378.567 123.535 374.773 134.923 367.759 138.029C365.459 136.648 365.229 135.038 365.229 135.038L375.693 119.969Z" fill="#263238"/>
<path d="M364.539 111.802C372.013 112.262 374.543 116.518 377.073 121.119C374.773 127.676 365.229 138.144 365.229 138.144C365.229 138.144 350.856 110.996 364.539 111.802Z" fill="#407BFF"/>
<path d="M419.617 141.019L427.781 133.197L428.471 143.78C428.471 143.78 422.837 147.346 419.042 145.276L419.617 141.019Z" fill="#FFB573"/>
<path d="M434.565 134.463L435.715 139.409C435.945 140.674 435.255 141.825 433.99 142.17L428.471 143.78L427.781 133.197L432.61 132.967C433.53 132.967 434.45 133.542 434.565 134.463Z" fill="#FFB573"/>
<path d="M317.05 399.725C318.43 398.345 323.719 396.389 323.719 396.389C323.719 396.389 328.549 393.399 332.458 381.09C332.573 380.745 332.803 380.515 333.148 380.515L342.232 378.329C342.692 378.214 343.267 378.559 343.267 379.02C343.382 379.825 343.497 380.63 343.497 381.895C343.497 383.046 343.497 384.886 343.497 386.037C343.382 390.293 342.922 399.955 342.922 399.955H341.887C341.887 399.955 341.887 393.974 341.312 391.213C340.852 388.337 338.782 391.788 337.748 394.894C336.598 398.115 332.113 401.451 325.559 401.681C317.97 401.911 315.67 401.221 317.05 399.725Z" fill="#263238"/>
<path d="M263.122 86.8397C264.157 86.3795 265.307 86.0344 266.572 85.8044L266.342 84.6541C264.962 84.8841 263.697 85.3442 262.662 85.8044L263.122 86.8397Z" fill="white"/>
<path d="M256.798 88.1049V86.9546C250.934 86.9546 245.99 83.7338 244.035 78.6724L243 79.1325C245.185 84.654 250.474 88.1049 256.798 88.1049Z" fill="white"/>
<path d="M258.178 73.8411C263.007 70.2751 268.987 69.585 271.976 70.1601L273.701 82.1234C271.171 80.743 265.537 81.2031 261.283 83.0437C257.028 84.8842 249.324 84.194 246.564 77.5221C251.969 80.628 254.383 76.7169 258.178 73.8411Z" fill="white"/>
<path d="M279.68 122.73C279.68 122.73 279.795 122.73 279.68 122.73C280.14 122.615 280.37 122.384 280.255 122.039L272.321 68.0896C272.321 67.7445 271.976 67.5144 271.631 67.5144C271.286 67.5144 271.056 67.8595 271.056 68.2046L278.99 122.154C279.105 122.499 279.335 122.73 279.68 122.73Z" fill="#FF8B2E"/>
<path d="M281.75 113.872C281.175 109.846 277.84 107.43 276.231 104.554C276.001 104.094 275.196 104.209 274.966 104.784C274.506 105.705 275.656 108.12 276.231 108.696C276.921 109.501 277.036 115.022 280.255 116.518C281.865 115.367 281.75 113.872 281.75 113.872Z" fill="#FFB573"/>
<path d="M366.034 162.645C366.264 163.451 366.494 164.371 366.609 164.946C366.724 165.291 366.379 165.636 366.034 165.636C361.779 166.211 336.943 169.202 325.674 167.247C325.329 167.247 325.214 166.902 325.214 166.672C325.214 165.981 325.099 164.831 325.099 164.141C325.099 163.796 325.329 163.451 325.674 163.451C329.584 163.451 350.166 163.221 365.344 162.185C365.689 162.3 366.034 162.415 366.034 162.645Z" fill="white"/>
<path d="M343.267 162.645C342.117 162.3 335.333 162.76 334.758 163.106C334.183 163.451 334.413 168.052 334.988 168.282C336.023 168.857 342.232 168.512 343.382 168.167C344.417 167.937 344.072 162.875 343.267 162.645Z" fill="#E0E0E0"/>
<path d="M355.8 61.7627C347.636 62.4529 351.776 80.1677 362.01 92.246C365.459 84.3089 365.459 70.16 355.8 61.7627Z" fill="#263238"/>
<path d="M355.225 63.6034C347.406 68.8948 328.549 72.2307 330.848 67.2844C333.263 62.223 352.006 51.295 355.225 63.6034Z" fill="#263238"/>
<path d="M162.207 369.307L172.325 369.077L172.785 345.611L162.667 345.726L162.207 369.307Z" fill="#FF8B7B"/>
<path d="M172.671 366.086L161.632 366.316C161.172 366.316 160.827 366.661 160.827 367.006L159.447 376.094C159.332 377.014 160.022 377.934 161.057 377.819C165.082 377.704 170.831 377.359 175.775 377.244C181.639 377.129 181.064 377.359 187.964 377.244C192.103 377.129 193.023 372.988 191.183 372.643C183.134 371.033 182.329 370.918 175.2 366.776C174.395 366.316 173.59 366.086 172.671 366.086Z" fill="#263238"/>
<path opacity="0.2" d="M172.785 345.611L172.555 357.689L162.437 357.919L162.667 345.726L172.785 345.611Z" fill="black"/>
<path d="M174.51 367.007C174.395 367.007 174.395 366.892 174.395 366.776C174.395 366.661 174.395 366.546 174.51 366.546C174.97 366.316 179.11 364.131 180.375 364.821C180.604 364.936 180.719 365.166 180.719 365.511C180.719 365.971 180.604 366.431 180.26 366.661C178.995 367.582 176.12 367.237 174.51 367.007ZM179.915 365.166C179.11 364.936 176.925 365.741 175.315 366.546C177.5 366.892 179.225 366.776 179.8 366.201C180.03 365.971 180.145 365.741 180.145 365.396C180.145 365.396 180.145 365.281 179.915 365.166C180.03 365.166 179.915 365.166 179.915 365.166Z" fill="#407BFF"/>
<path d="M174.51 367.007C174.395 366.891 174.395 366.891 174.51 367.007C174.395 366.891 174.395 366.891 174.395 366.776C174.395 366.661 174.74 363.901 176.12 362.865C176.58 362.52 176.925 362.405 177.5 362.405C178.19 362.405 178.305 362.75 178.42 363.095C178.535 364.246 176.12 366.431 174.855 367.007C174.625 367.007 174.51 367.007 174.51 367.007ZM177.5 362.865C177.385 362.865 177.385 362.865 177.27 362.865C176.925 362.865 176.58 362.98 176.235 363.211C175.315 363.901 174.97 365.511 174.74 366.316C176.005 365.511 177.73 363.786 177.615 363.095C177.73 363.095 177.73 362.98 177.5 362.865Z" fill="#407BFF"/>
<path d="M155.997 244.153C143.694 192.389 131.966 169.957 136.565 144.305L172.325 144.766C172.325 144.766 186.469 215.165 183.364 245.533C180.259 277.052 175.66 350.557 175.66 350.557L159.332 350.787C159.447 350.672 149.903 279.352 155.997 244.153Z" fill="#407BFF"/>
<path opacity="0.2" d="M154.273 236.791C147.719 210.449 141.509 192.044 138.175 176.744C161.287 185.027 159.332 213.9 154.273 236.791Z" fill="black"/>
<path d="M178.19 346.761L176.925 353.778L158.987 354.123L158.182 347.451L178.19 346.761Z" fill="#263238"/>
<path d="M104.829 369.307L114.948 369.077L118.282 345.611L108.164 345.726L104.829 369.307Z" fill="#FF8B7B"/>
<path d="M115.638 366.086L104.599 366.316C104.139 366.316 103.909 366.661 103.794 367.006L102.874 376.094C102.759 377.014 103.564 377.934 104.484 377.819C108.509 377.704 109.658 377.359 114.718 377.244C120.582 377.129 117.822 377.359 124.722 377.244C128.861 377.129 129.551 372.988 127.711 372.643C122.077 371.493 120.582 369.192 118.052 366.776C117.477 366.201 116.558 366.086 115.638 366.086Z" fill="#263238"/>
<path opacity="0.2" d="M118.282 345.611L116.558 357.689L106.439 357.919L108.164 345.726L118.282 345.611Z" fill="black"/>
<path d="M113.683 366.777C113.568 366.777 113.453 366.777 113.453 366.662C113.453 366.547 113.453 366.431 113.453 366.431C113.798 366.086 116.903 362.635 118.282 362.865C118.512 362.865 118.742 363.096 118.857 363.326C119.087 363.786 119.087 364.131 118.857 364.591C118.167 365.856 115.293 366.547 113.683 366.777ZM118.052 363.326C117.248 363.326 115.523 364.936 114.258 366.201C116.443 365.741 118.052 365.051 118.397 364.361C118.512 364.131 118.512 363.786 118.397 363.556C118.397 363.441 118.282 363.326 118.052 363.326C118.167 363.326 118.167 363.326 118.052 363.326Z" fill="#407BFF"/>
<path d="M113.683 366.777C113.683 366.777 113.568 366.777 113.683 366.777C113.568 366.777 113.453 366.662 113.453 366.546C113.453 366.431 112.648 363.786 113.568 362.29C113.798 361.83 114.143 361.6 114.718 361.485C115.408 361.255 115.638 361.6 115.753 361.83C116.328 362.865 114.833 365.741 113.913 366.662C113.798 366.777 113.683 366.777 113.683 366.777ZM114.948 361.945C114.833 361.945 114.833 361.945 114.718 361.945C114.373 362.06 114.143 362.29 113.913 362.635C113.338 363.556 113.568 365.281 113.798 366.086C114.718 364.936 115.638 362.75 115.293 362.175C115.178 362.06 115.178 361.945 114.948 361.945Z" fill="#407BFF"/>
<path d="M118.282 244.153C112.763 192.389 106.209 169.382 114.258 143.73L151.513 144.766C151.513 144.766 152.548 215.165 145.534 245.533C138.29 277.052 121.272 350.557 121.272 350.557L104.944 350.787C104.944 350.672 107.589 279.352 118.282 244.153Z" fill="#407BFF"/>
<path d="M123.572 346.761L122.537 353.778L104.254 354.123L103.219 347.451L123.572 346.761Z" fill="#263238"/>
<path d="M162.552 64.3584C163.817 68.2695 165.311 71.9505 166.806 75.7466C168.301 79.5426 169.911 83.2236 171.636 86.9046C173.36 90.5856 175.2 94.2666 177.27 97.9477C178.305 99.7882 179.455 101.629 180.604 103.469C181.869 105.31 183.249 107.15 185.089 109.106L184.514 108.416C185.204 109.221 185.894 110.256 187.159 111.176C187.503 111.406 187.848 111.636 188.193 111.866C188.653 112.097 188.998 112.327 189.458 112.442C190.378 112.787 191.528 113.017 192.563 113.132C194.748 113.247 196.702 112.442 197.852 111.636C199.117 110.831 199.922 110.026 200.612 109.336C201.992 107.84 202.682 106.46 203.371 105.195C204.061 103.929 204.636 102.664 205.096 101.399C206.016 98.8679 206.821 96.4522 207.396 93.9216C207.971 91.3909 208.431 88.9752 208.776 86.4445C209.006 84.3739 207.511 82.4184 205.441 82.1883C203.831 81.9583 202.337 82.8785 201.647 84.1439L201.532 84.2589C200.497 86.2144 199.347 88.4 198.312 90.3556C197.162 92.4261 196.127 94.3817 194.863 96.1072C194.288 97.0274 193.713 97.8326 193.138 98.5228C192.563 99.213 191.988 99.9032 191.528 100.133C191.413 100.248 191.298 100.248 191.413 100.133C191.643 100.018 192.218 99.5581 193.253 99.5581C193.713 99.5581 194.288 99.6731 194.633 99.7882C194.863 99.9032 194.978 99.9032 195.093 100.018C195.207 100.018 195.322 100.133 195.437 100.248C195.782 100.478 195.782 100.478 195.667 100.363L195.093 99.6731C194.288 98.6378 193.368 97.2575 192.448 95.7621C191.643 94.2666 190.723 92.6562 189.918 91.0458C189.113 89.4353 188.308 87.7098 187.503 85.9844C186.699 84.2589 186.009 82.5334 185.204 80.808C183.709 77.242 182.329 73.676 180.834 70.11C179.455 66.544 178.075 62.863 176.695 59.4121V59.2971C175.2 55.386 170.716 53.3154 166.806 54.8108C163.242 56.1912 161.287 60.4474 162.552 64.3584Z" fill="#FF8B7B"/>
<path d="M205.671 90.9308L216.595 87.8249L208.661 78.3923C208.661 78.3923 199.462 81.1531 200.957 86.9047L205.671 90.9308Z" fill="#FF8B7B"/>
<path d="M220.159 80.923L217.515 76.5518C216.595 75.0564 214.525 74.5963 213.03 75.5165L208.776 78.3923L216.71 87.8249L219.699 84.9491C220.734 83.7988 220.964 82.1883 220.159 80.923Z" fill="#FF8B7B"/>
<path d="M173.36 49.8645C182.789 56.7664 186.354 77.127 186.354 77.127L165.311 86.7897C165.311 86.7897 161.287 81.6133 159.332 70.8003C158.872 67.4644 163.817 42.8476 173.36 49.8645Z" fill="#263238"/>
<path d="M167.611 47.2186C156.802 44.918 145.419 44.5729 133.575 45.4932C127.251 45.9533 121.962 50.4395 120.582 56.6512C117.248 70.9151 111.498 99.2129 113.453 144.305C118.627 146.491 134.265 147.756 146.914 147.986C148.294 147.986 151.858 145.111 151.858 145.111C151.858 145.111 154.618 147.986 156.343 147.871C164.736 147.641 171.406 146.721 173.015 145.226C177.155 137.403 181.064 117.043 173.705 97.9476C174.625 86.9045 177.845 74.7112 178.995 62.978C179.685 55.6159 174.855 48.8291 167.611 47.2186Z" fill="#263238"/>
<path d="M148.984 27.0881C147.949 34.6802 146.454 43.4226 141.165 47.6788C143.119 52.8552 148.179 57.5715 155.423 57.9166C163.472 58.3767 162.207 51.9349 160.942 48.484C157.492 44.688 159.217 40.3168 160.022 37.3259L148.984 27.0881Z" fill="#FF8B7B"/>
<path opacity="0.2" d="M151.168 30.7693C151.168 30.3092 151.283 29.849 151.398 29.3889L160.022 37.3261C159.447 39.1666 158.757 41.4672 158.872 43.7679C154.618 40.8921 150.708 35.3706 151.168 30.7693Z" fill="black"/>
<path d="M146.109 16.1603C147.374 26.1681 147.604 32.0347 153.008 36.751C161.172 43.8829 173.245 38.3614 174.97 28.2386C176.58 19.0361 174.165 4.31208 164.161 1.0912C154.158 -2.12969 144.844 6.15258 146.109 16.1603Z" fill="#FF8B7B"/>
<path opacity="0.2" d="M159.562 17.4256C159.562 17.4256 157.263 16.2753 155.423 17.0805C157.608 17.7707 159.562 17.4256 159.562 17.4256Z" fill="black"/>
<path opacity="0.2" d="M159.447 18.4607C159.447 18.4607 157.263 17.8856 155.768 19.1509C157.722 19.1509 159.447 18.4607 159.447 18.4607Z" fill="black"/>
<path d="M148.868 25.8229C152.663 25.9379 154.618 23.6373 154.618 23.6373C154.618 23.6373 149.788 20.0713 150.708 16.1602C151.513 12.3642 153.238 9.94853 151.743 8.10802C158.987 9.25834 173.935 9.4884 177.5 5.80739C175.315 6.26752 173.36 4.54204 171.865 5.1172C171.291 3.39173 166.231 -2.24482 154.618 0.976065C146.799 3.16166 144.154 10.6387 144.729 13.3995C143.464 14.5498 140.245 22.602 148.868 25.8229Z" fill="#E0E0E0"/>
<path d="M179.225 29.6188C179.225 29.6188 176.35 36.1756 170.946 33.0697C166.001 35.2553 161.287 32.2645 159.332 28.3535C162.437 29.6188 165.196 25.3626 169.566 25.7077C170.371 25.8228 170.831 26.3979 170.831 26.3979C170.831 26.3979 171.636 25.9378 172.326 25.9378C175.43 26.1679 174.97 29.6188 179.225 29.6188Z" fill="#E0E0E0"/>
<path d="M143.349 26.5131C144.729 28.8137 147.144 30.1941 149.328 30.6542C152.548 31.3444 154.043 28.3536 153.008 25.3628C152.088 22.717 149.213 19.036 145.994 19.7262C142.774 20.4164 141.739 23.9824 143.349 26.5131Z" fill="#FF8B7B"/>
<path d="M162.092 18.1157C162.092 18.9209 162.667 19.6111 163.127 19.496C163.587 19.381 164.047 18.8059 164.047 18.0006C164.047 17.1954 163.472 16.5052 163.012 16.6203C162.552 16.7353 161.977 17.3104 162.092 18.1157Z" fill="#263238"/>
<path d="M172.325 17.7707C172.325 18.5759 172.9 19.2661 173.36 19.1511C173.935 19.1511 174.28 18.4609 174.28 17.6557C174.28 16.8504 173.705 16.1603 173.245 16.2753C172.785 16.3903 172.211 16.8504 172.325 17.7707Z" fill="#263238"/>
<path d="M171.406 17.7707C171.176 17.7707 170.946 18.0008 170.946 18.2308V22.0269C170.946 22.2569 171.176 22.487 171.406 22.487H177.385C177.615 22.487 177.845 22.2569 177.845 22.0269V18.2308C177.845 18.0008 177.615 17.7707 177.385 17.7707H171.406ZM171.406 17.1956H177.385C177.96 17.1956 178.42 17.6557 178.42 18.2308V22.0269C178.42 22.602 177.96 23.0622 177.385 23.0622H171.406C170.831 23.0622 170.371 22.602 170.371 22.0269V18.2308C170.256 17.6557 170.831 17.1956 171.406 17.1956Z" fill="#263238"/>
<path d="M159.102 17.7707C158.872 17.7707 158.642 18.0008 158.642 18.2308V22.0269C158.642 22.2569 158.872 22.487 159.102 22.487H166.921C167.151 22.487 167.381 22.2569 167.381 22.0269V18.2308C167.381 18.0008 167.151 17.7707 166.921 17.7707H159.102ZM159.102 17.1956H166.921C167.496 17.1956 167.956 17.6557 167.956 18.2308V22.0269C167.956 22.602 167.496 23.0622 166.921 23.0622H159.102C158.527 23.0622 158.067 22.602 158.067 22.0269V18.2308C158.067 17.6557 158.527 17.1956 159.102 17.1956Z" fill="#263238"/>
<path d="M170.371 19.036L170.831 18.5759C170.831 18.5759 169.566 17.3105 167.611 18.4608L167.956 19.036C169.451 18.2308 170.371 19.036 170.371 19.036Z" fill="#263238"/>
<path d="M169.336 18.8059C169.336 18.8059 171.751 23.1771 174.05 25.2477C172.785 26.7431 170.256 26.513 170.256 26.513L169.336 18.8059Z" fill="#FF5652"/>
<path d="M160.252 12.7094C160.137 12.7094 160.137 12.7094 160.022 12.5943C159.792 12.4793 159.792 12.1342 159.907 11.9041C161.402 9.71855 163.587 9.60352 163.702 9.60352C163.932 9.60352 164.162 9.83358 164.162 10.0636C164.162 10.2937 163.932 10.5238 163.702 10.5238C163.587 10.5238 161.862 10.5238 160.712 12.3643C160.597 12.7094 160.367 12.7094 160.252 12.7094Z" fill="#263238"/>
<path d="M175.315 13.5145C175.2 13.5145 174.97 13.5145 174.855 13.3994C173.36 11.904 171.636 12.1341 171.636 12.2491C171.406 12.2491 171.176 12.1341 171.061 11.904C171.061 11.6739 171.176 11.4439 171.406 11.3289C171.521 11.3289 173.705 10.8687 175.545 12.8243C175.775 13.0543 175.775 13.2844 175.545 13.5145C175.545 13.5145 175.43 13.5145 175.315 13.5145Z" fill="#263238"/>
<path d="M120.812 54.8109C119.547 56.5364 118.512 58.0318 117.478 59.6422C116.443 61.2527 115.408 62.8631 114.373 64.4736C112.418 67.6944 110.578 71.1454 108.854 74.5963C105.404 81.4982 102.415 88.7452 100.805 96.9125C100.575 97.9477 100.46 98.983 100.345 100.018L100.115 101.629C100.115 101.859 99.9998 102.434 99.9998 102.779C99.9998 103.239 99.9998 103.699 99.9998 104.159C100.115 106 100.69 107.955 101.61 109.566C102.529 111.176 103.564 112.327 104.599 113.362C106.784 115.318 108.969 116.468 111.038 117.388C113.108 118.193 115.178 118.883 117.133 119.344C125.067 121.184 132.656 121.414 140.36 120.954C142.429 120.839 144.039 118.999 143.924 116.928C143.809 115.202 142.544 113.707 140.82 113.362H140.59C138.98 113.017 137.14 112.672 135.415 112.327C133.69 111.982 131.966 111.521 130.241 111.061C126.906 110.141 123.572 109.221 120.582 108.071C119.087 107.495 117.708 106.805 116.443 106.115C115.178 105.425 114.258 104.62 113.798 104.044C113.568 103.814 113.453 103.584 113.568 103.469L113.683 103.584C113.683 103.584 113.683 103.699 113.683 103.354L113.913 102.204C114.028 101.514 114.258 100.708 114.488 99.9033C116.098 93.8066 119.087 87.4799 122.307 81.4982C123.917 78.3924 125.756 75.4016 127.481 72.4107C128.401 70.9153 129.321 69.4199 130.241 67.9245C131.161 66.5441 132.196 64.9337 133.116 63.6683L133.231 63.5533C135.645 60.1023 134.725 55.271 131.276 52.8554C127.826 50.6698 123.227 51.475 120.812 54.8109Z" fill="#FF8B7B"/>
<path d="M130.011 46.1835C118.627 48.4841 109.084 68.2695 109.084 68.2695L121.962 87.7099C121.962 87.7099 130.471 81.2681 135.53 71.4904C137.14 68.4996 141.624 43.8829 130.011 46.1835Z" fill="#263238"/>
<path d="M136.22 112.902L146.454 112.212L143.809 124.175C143.809 124.175 134.495 123.715 133.921 118.653L136.22 112.902Z" fill="#FF8B7B"/>
<path d="M154.618 119.114L153.008 123.14C152.318 124.75 150.593 125.67 148.983 125.325L143.924 124.175L146.569 112.212L152.663 114.512C154.388 115.087 155.308 117.273 154.618 119.114Z" fill="#FF8B7B"/>
<path d="M143.924 43.8829C143.694 46.1836 146.454 54.3508 156.113 57.9168C152.433 57.9168 150.708 62.6331 150.708 62.6331C150.708 62.6331 137.83 55.8462 139.44 47.564C140.475 43.7679 143.924 43.8829 143.924 43.8829Z" fill="#407BFF"/>
<path d="M159.102 44.573C158.872 46.8736 161.517 51.5899 156.113 57.9167C159.792 57.9167 162.092 61.7127 162.092 61.7127C162.092 61.7127 167.036 54.5808 163.127 46.4135C161.172 44.688 159.102 44.573 159.102 44.573Z" fill="#407BFF"/>
<path d="M23.5663 110.284C12.4127 122.132 2.06408 126.504 2.75399 141.228C-2.42035 149.51 -0.235649 172.286 8.7332 177.002C17.702 181.719 43.1138 178.383 43.1138 178.383L23.5663 110.284Z" fill="#263238"/>
<path d="M51.2778 241.65C52.4276 254.074 53.2325 267.763 53.1176 281.451C52.3127 295.485 52.5426 313.43 53.1176 330.57H75.3097C75.9996 313.545 76.6895 296.635 77.2644 285.247C78.8742 255.339 83.5886 183.905 83.5886 183.905L65.7659 184.135L42.5389 184.48C42.5389 184.48 48.2882 209.211 51.2778 241.65Z" fill="#263238"/>
<path opacity="0.2" d="M51.5077 211.742C63.2362 227.732 57.9469 257.87 53.1175 279.151C53.1175 252.693 50.0129 227.041 47.1382 209.096L51.5077 211.742Z" fill="black"/>
<path d="M16.7822 279.036C22.4164 234.863 24.4862 194.487 31.0403 184.595L65.7659 184.02C65.7659 184.02 58.4068 213.007 51.2777 241.535C47.3682 257.295 43.5737 272.939 41.159 283.407C38.5144 295.14 34.8349 312.97 31.3853 330.455H9.65311C11.8378 312.395 12.7577 292.264 16.7822 279.036Z" fill="#263238"/>
<path d="M57.487 389.581C57.487 389.581 55.4173 361.168 54.4974 330.57H73.8149C72.7801 360.018 70.0204 389.351 70.0204 389.351L57.487 389.581Z" fill="#7F3E3B"/>
<path d="M20.3466 386.36L6.8934 386.59C6.8934 386.59 8.04325 359.443 10.9179 330.455H29.4304C24.716 358.867 20.3466 386.36 20.3466 386.36Z" fill="#7F3E3B"/>
<path d="M75.8846 335.286L77.0344 325.623L51.5077 325.163L52.8875 334.711C52.8875 334.596 63.2362 338.737 75.8846 335.286Z" fill="#407BFF"/>
<path d="M31.1553 335.286L32.8801 325.623L8.27332 325.163L8.96323 334.711C8.96323 334.596 18.277 338.737 31.1553 335.286Z" fill="#407BFF"/>
<path d="M67.8357 107.869C68.1806 111.204 68.6406 114.425 69.1005 117.646C69.5605 120.867 70.1354 124.088 70.7103 127.424C71.2852 130.645 71.8602 133.866 72.5501 137.087C73.125 140.307 73.8149 143.528 74.6198 146.749L74.8498 147.554C74.8498 147.669 74.9648 147.9 74.9648 148.015C76.2296 151.235 77.6094 154.226 79.1042 157.217C80.4841 160.208 82.0939 163.199 83.7036 166.075C85.3134 168.95 86.9232 171.826 88.648 174.587C90.3728 177.348 92.0976 180.223 94.0523 182.869C95.5471 184.94 98.4217 185.4 100.491 184.019C102.101 182.869 102.791 180.799 102.216 178.958V178.843C101.296 175.737 100.376 172.631 99.3416 169.641L96.352 160.438L93.3624 151.351C92.4425 148.36 91.5226 145.369 90.6027 142.493L90.9477 143.758L89.9128 134.096C89.5679 130.875 89.2229 127.654 88.763 124.433C88.418 121.212 87.9581 117.991 87.4981 114.77C87.0382 111.55 86.5783 108.329 86.0033 105.108C85.1984 100.046 80.3691 96.7105 75.4247 97.5157C70.5953 98.551 67.2607 103.037 67.8357 107.869Z" fill="#7F3E3B"/>
<path d="M101.181 177.578L106.241 186.205L94.6272 189.081C94.6272 189.081 91.0627 180.799 95.2021 178.153L101.181 177.578Z" fill="#7F3E3B"/>
<path d="M103.711 196.213L99.4565 196.558C97.7317 196.673 96.237 195.523 95.892 193.912L94.7422 189.081L106.356 186.205L106.931 192.417C107.046 194.372 105.551 196.098 103.711 196.213Z" fill="#7F3E3B"/>
<path d="M36.9046 95.4453C48.9781 93.7198 62.7763 93.1446 74.8497 94.1799C80.8289 94.7551 85.4284 99.4714 85.7733 105.453C86.4632 118.682 86.8082 145.139 83.5886 183.789C78.1843 189.886 54.2674 192.302 31.0404 184.595C30.4654 177.923 27.3609 149.165 20.9217 118.106C18.737 107.178 25.866 97.0557 36.9046 95.4453Z" fill="#407BFF"/>
<path d="M69.9054 93.8348C70.1354 94.0649 70.2504 94.2949 70.4804 94.525C72.2052 97.0557 72.5501 99.7014 71.4002 101.887C70.0204 104.418 66.9158 105.798 62.0864 106.028C61.6265 106.028 61.2816 106.028 60.8216 106.028C52.1978 106.028 46.4485 103.037 42.884 100.737C40.9292 99.4713 39.8943 97.2857 39.8943 95.1001C49.5531 93.8348 60.1317 93.2596 69.9054 93.8348Z" fill="white"/>
<path d="M42.309 70.8284L59.0968 81.5263C57.717 86.9328 57.717 92.5693 65.881 94.2948C66.9158 94.5249 67.8357 95.1 68.4106 95.9052C70.4803 99.0111 70.7103 103.267 61.9715 103.497C54.0375 103.727 48.5182 101.312 44.2637 98.551C42.5389 97.5157 41.849 95.2151 42.7689 93.4896C45.8735 87.3929 44.0338 76.925 42.309 70.8284Z" fill="#7F3E3B"/>
<path opacity="0.2" d="M49.0932 75.1997L58.9819 81.5264C58.637 82.9068 58.407 84.1722 58.292 85.5525C54.7275 86.2427 49.3231 83.1369 48.7482 79.916C48.6332 78.3056 48.8632 76.0049 49.0932 75.1997Z" fill="black"/>
<path d="M61.8565 45.6365C65.766 48.7423 67.6057 51.5031 66.9158 58.0599C66.1109 64.5016 60.7066 62.6611 60.7066 62.6611L61.8565 45.6365Z" fill="#263238"/>
<path d="M38.8594 61.626C41.1591 71.0586 41.964 76.8101 47.5983 80.8363C56.2222 86.9329 67.2607 80.3761 67.8356 70.3684C68.4105 61.3959 64.616 47.3621 54.6123 45.2915C44.8386 43.1059 36.6747 52.0784 38.8594 61.626Z" fill="#7F3E3B"/>
<path d="M34.1449 67.7227C33.5699 69.4482 36.5596 74.9697 40.4691 73.7043C44.7235 67.9528 47.5981 61.7411 43.6886 56.7947C49.3229 55.5294 68.7554 53.1137 64.271 47.3621C63.2361 44.2563 55.0722 40.2302 46.7932 41.6105C38.5143 42.8759 29.2005 54.7241 34.1449 67.7227Z" fill="#263238"/>
<path d="M34.145 67.7226C35.0649 60.0155 43.3439 50.6979 53.9225 48.9724C60.4767 47.8221 64.3862 47.362 64.3862 47.362C64.3862 47.362 65.996 44.4862 62.2014 42.7607C62.0865 39.4248 32.1903 30.6824 27.8209 50.928C26.2111 58.29 30.6955 53.1136 30.6955 53.1136C30.6955 53.1136 27.1309 66.4572 34.145 67.7226Z" fill="#407BFF"/>
<path d="M35.9848 71.8636C37.5946 73.9342 40.0093 75.0845 42.194 75.3145C45.4136 75.6596 46.5635 72.6688 45.1836 69.9081C44.0338 67.3774 40.9292 64.2715 37.8246 65.1918C34.8349 65.997 34.145 69.4479 35.9848 71.8636Z" fill="#7F3E3B"/>
<path d="M53.5774 60.5907C53.6924 61.3959 54.2673 61.9711 54.7273 61.856C55.1872 61.741 55.5322 61.0508 55.4172 60.2456C55.3022 59.4404 54.7273 58.8652 54.2673 58.9802C53.8074 59.0953 53.4624 59.9005 53.5774 60.5907Z" fill="#263238"/>
<path d="M63.0063 59.5553C63.1213 60.3605 63.6963 60.9357 64.1562 60.8206C64.6161 60.7056 64.9611 60.0154 64.8461 59.2102C64.7311 58.405 64.1562 57.8298 63.6963 57.9448C63.1213 58.0599 62.8914 58.7501 63.0063 59.5553Z" fill="#263238"/>
<path d="M60.0166 60.9358C60.0166 60.9358 62.5462 65.0769 64.9609 66.9174C63.8111 68.4128 61.3964 68.2978 61.3964 68.2978L60.0166 60.9358Z" fill="#630F0F"/>
<path d="M58.4068 70.9435C55.4171 71.0585 53.5774 69.333 53.5774 69.218C53.4624 69.103 53.4624 68.9879 53.5774 68.8729C53.6923 68.7579 53.8074 68.7579 53.9223 68.8729C53.9223 68.8729 55.9921 70.9435 59.3267 70.3683C59.4416 70.3683 59.5566 70.4833 59.5566 70.5984C59.5566 70.7134 59.4416 70.8284 59.3267 70.8284C58.9817 70.9435 58.6368 70.9435 58.4068 70.9435Z" fill="#263238"/>
<path d="M50.588 59.6703C50.473 59.6703 50.473 59.6703 50.358 59.6703C50.1281 59.5553 50.0131 59.3253 50.0131 59.0952C50.8179 56.6795 52.8877 55.9893 52.8877 55.9893C53.1176 55.8743 53.3476 56.1044 53.4626 56.3344C53.5776 56.5645 53.3476 56.7946 53.1176 56.9096C53.0027 56.9096 51.3929 57.3697 50.818 59.4403C50.9329 59.4403 50.8179 59.5553 50.588 59.6703Z" fill="#263238"/>
<path d="M66.2259 55.5292C66.1109 55.5292 65.8809 55.5292 65.7659 55.4141C64.3861 53.9187 62.7763 54.1488 62.6613 54.1488C62.4314 54.1488 62.2014 54.0338 62.0864 53.8037C62.0864 53.5736 62.2014 53.3436 62.4314 53.2285C62.5464 53.2285 64.6161 52.8835 66.3409 54.724C66.5708 54.954 66.4558 55.1841 66.3409 55.4141C66.4558 55.4141 66.3409 55.4141 66.2259 55.5292Z" fill="#263238"/>
<path d="M20.0017 105.683L19.3118 106.833L18.7368 107.869C18.3919 108.559 18.0469 109.249 17.702 109.939C17.0121 111.32 16.4371 112.7 15.7472 114.195C14.5974 117.071 13.4475 119.947 12.6426 122.938C10.9178 128.919 9.65298 135.361 9.76797 142.148C9.76797 143.068 9.88296 143.873 9.88296 144.679C9.88296 145.024 9.99795 145.599 9.99795 146.174L10.1129 147.209L10.3429 148.245C10.6879 149.74 11.3778 151.351 12.5276 152.961C13.6775 154.571 15.1723 155.837 16.7821 156.642C18.3919 157.447 19.8867 157.907 21.1515 158.137C22.5314 158.367 23.6812 158.367 24.716 158.367C26.9008 158.252 28.7406 157.792 30.3504 157.332C33.6849 156.297 36.5595 154.917 39.2042 153.421C41.9638 151.926 44.3785 150.315 46.9082 148.36C48.863 146.749 49.2079 143.873 47.5981 141.918C46.4483 140.423 44.4935 139.847 42.7687 140.308L42.5388 140.423C37.4794 141.803 31.9601 143.298 27.5907 143.643C26.5558 143.758 25.521 143.643 24.831 143.528C24.1411 143.413 23.9111 143.068 24.716 143.298C25.061 143.413 25.5209 143.758 25.8659 144.104C26.2109 144.449 26.3258 144.794 26.4408 144.909C26.4408 144.794 26.4408 144.679 26.4408 144.334C26.4408 143.758 26.4408 143.068 26.5558 142.608C27.0158 138.122 28.1656 133.406 29.8904 128.689C30.6953 126.274 31.7302 123.973 32.6501 121.557C33.11 120.407 33.6849 119.257 34.2598 118.106L35.0647 116.381L35.8696 114.886L36.0996 114.425C38.2843 109.824 36.4446 104.418 31.9601 102.117C27.7057 99.8164 22.4164 101.542 20.0017 105.683Z" fill="#7F3E3B"/>
<path d="M25.406 101.887C24.3711 101.427 24.1411 99.9314 25.061 99.2412C28.9705 96.2504 34.9498 94.5249 37.8244 94.6399C44.1486 94.87 52.0825 108.559 55.6471 141.573C58.8667 171.596 34.3748 171.136 29.7754 170.791C29.3155 170.791 28.9705 170.446 28.9705 169.986L28.8555 169.065C28.7405 168.49 29.2005 168.03 29.7754 168.03C33.4549 167.915 50.2428 166.305 51.5076 155.031C47.8281 140.653 44.4935 110.169 25.406 101.887Z" fill="#263238"/>
<path d="M40.0091 142.263L47.7131 135.936L52.3125 146.979C52.3125 146.979 44.6085 151.811 41.3889 148.13L40.0091 142.263Z" fill="#7F3E3B"/>
<path d="M58.0618 136.972L59.0967 141.113C59.4417 142.723 58.6368 144.449 57.027 145.139L52.4275 147.094L47.8281 136.051L53.9224 134.441C55.6471 133.981 57.6019 135.131 58.0618 136.972Z" fill="#7F3E3B"/>
<path d="M54.4974 401.544L55.9922 401.199L94.7422 400.394C96.007 401.774 94.5122 406.03 88.8779 406.03C83.2436 406.03 74.7347 405.8 68.9855 405.8C63.3512 405.8 61.3965 406.03 55.9922 406.03C54.4974 405.915 53.5775 403.73 54.4974 401.544Z" fill="#407BFF"/>
<path d="M55.646 387.74L54.2662 401.314C54.1512 402.349 55.0711 403.385 56.221 403.385C62.2002 403.385 65.9947 403.155 71.7439 403.04C78.528 402.924 82.6675 403.5 90.6014 403.385C95.3158 403.27 96.1207 398.668 94.051 398.093C84.3922 395.217 79.1029 393.262 74.2736 387.51C74.2736 387.51 79.1029 383.139 76.3433 380.723C73.5837 378.308 64.0399 377.848 63.58 380.723C63.0051 383.599 63.8099 386.245 63.8099 386.245C63.8099 386.245 58.2907 384.519 55.646 387.74Z" fill="#263238"/>
<path d="M76.4595 389.581C75.5396 388.316 75.1947 387.625 73.4699 387.51C71.8601 387.395 65.7659 388.085 65.076 389.696C64.3861 391.421 66.3408 393.032 67.3757 392.687C68.4106 392.342 77.4944 390.961 76.4595 389.581Z" fill="#407BFF"/>
<path d="M81.404 392.917C80.944 391.996 79.7941 391.076 78.2993 391.191C76.9195 391.306 71.7451 392.572 71.2852 394.182C70.8253 395.792 72.5501 397.173 73.47 396.598C74.2749 396.022 81.9789 394.182 81.404 392.917Z" fill="#407BFF"/>
<path d="M3.55905 401.544L5.05388 401.199L39.7793 400.394C41.0441 401.774 39.5493 406.031 33.915 406.031C28.2808 406.031 23.7964 405.801 18.0471 405.801C12.4129 405.801 10.4582 406.031 5.05388 406.031C3.44409 405.916 2.52419 403.73 3.55905 401.544Z" fill="#407BFF"/>
<path d="M7.23889 385.9C5.62909 386.36 4.59423 387.74 4.47925 389.351L3.3294 401.314C3.21441 402.35 4.13427 403.385 5.28413 403.385C11.2634 403.385 7.69882 403.155 13.4481 403.04C20.2322 402.925 27.7063 403.5 35.5252 403.385C40.2396 403.27 41.0445 398.668 38.9748 398.093C26.4414 393.837 23.4518 388.201 20.6921 387.51C20.6921 387.51 24.3717 382.449 21.727 380.033C18.9674 377.618 11.2634 378.078 9.99852 380.724C8.38873 384.174 10.2285 386.245 10.2285 386.245C10.2285 386.245 8.84868 385.44 7.23889 385.9Z" fill="#263238"/>
<path d="M24.3712 388.661C23.4513 387.396 23.1064 386.705 21.2666 386.59C19.4268 386.36 12.6427 386.59 11.7229 388.086C10.803 389.581 12.7577 391.192 13.9076 390.961C15.1724 390.616 25.4061 390.041 24.3712 388.661Z" fill="#407BFF"/>
<path d="M28.2807 392.342C27.3608 391.076 26.3259 390.386 25.2911 390.386C23.5663 390.386 16.6672 390.961 15.8623 392.457C15.0575 394.067 16.8972 395.563 17.9321 395.218C18.9669 394.987 29.2006 393.607 28.2807 392.342Z" fill="#407BFF"/>
<path d="M93.9372 185.975C94.7421 185.975 95.7769 185.745 97.1567 185.055C100.836 183.099 103.021 180.914 103.021 179.073C103.021 178.268 102.561 177.693 101.871 177.233C101.756 177.118 101.526 177.233 101.411 177.348C101.296 177.463 101.411 177.693 101.526 177.808C102.101 178.038 102.331 178.498 102.331 179.073C102.331 180.339 100.836 182.409 96.8118 184.48C94.7421 185.515 93.2472 185.63 92.5573 184.825C91.8674 184.02 92.2124 182.409 92.5573 182.064C92.6723 181.949 92.6723 181.719 92.5573 181.604C92.4423 181.489 92.2124 181.489 92.0974 181.604C91.5225 182.179 91.1775 184.135 92.0974 185.17C92.4424 185.515 93.0173 185.975 93.9372 185.975Z" fill="#263238"/>
</g>
<defs>
<clipPath id="clip0">
<rect width="436" height="407" fill="white" transform="matrix(-1 0 0 1 436 0)"/>
</clipPath>
</defs>
</svg>
